<?xml version="1.0" encoding="utf-8"?>
<!-- Generator: Adobe Illustrator 17.0.0, SVG Export Plug-In . SVG Version: 6.00 Build 0)  -->
<!DOCTYPE svg PUBLIC "-//W3C//DTD SVG 1.1 Tiny//EN" "http://www.w3.org/Graphics/SVG/1.1/DTD/svg11-tiny.dtd">
<svg version="1.1" baseProfile="tiny" id="Layer_1" xmlns="http://www.w3.org/2000/svg" xmlns:xlink="http://www.w3.org/1999/xlink"
	 x="0px" y="0px" width="89.238px" height="15.918px" viewBox="0 0 89.238 15.918" overflow="scroll" xml:space="preserve">
<g id="a-excel">
	<path fill="#37612F" d="M5.477,3.415C4.849,4.107,4.215,4.8,3.576,5.492S2.27,6.874,1.578,7.561c-0.047,0.046-0.098,0.08-0.154,0.1
		C1.368,7.683,1.3,7.678,1.221,7.648S1.047,7.562,0.935,7.477c-0.111-0.085-0.249-0.21-0.413-0.374
		C0.37,6.944,0.254,6.813,0.174,6.707C0.095,6.601,0.044,6.512,0.02,6.438s-0.026-0.137-0.009-0.189S0.061,6.146,0.108,6.1
		l5.791-5.791c0.088-0.088,0.182-0.161,0.282-0.22C6.281,0.03,6.401,0,6.542,0C6.67,0,6.785,0.027,6.885,0.08
		c0.1,0.053,0.199,0.129,0.299,0.229L12.975,6.1c0.041,0.047,0.071,0.097,0.093,0.149c0.021,0.053,0.019,0.116-0.005,0.189
		S12.988,6.6,12.909,6.707c-0.079,0.105-0.195,0.237-0.348,0.396c-0.164,0.164-0.302,0.289-0.413,0.374s-0.207,0.143-0.286,0.172
		s-0.146,0.034-0.202,0.013c-0.057-0.021-0.107-0.054-0.154-0.101c-0.692-0.687-1.358-1.376-1.998-2.068s-1.273-1.385-1.9-2.077
		v11.168c0,0.047-0.018,0.091-0.053,0.133c-0.036,0.041-0.093,0.076-0.172,0.105s-0.188,0.053-0.326,0.07s-0.31,0.026-0.515,0.026
		s-0.377-0.009-0.515-0.026s-0.246-0.041-0.326-0.07c-0.079-0.029-0.136-0.064-0.171-0.105c-0.035-0.042-0.053-0.086-0.053-0.133
		V3.415z"/>
	<path fill="#37612F" d="M31.21,8.396c0,0.27-0.06,0.47-0.18,0.599c-0.121,0.129-0.286,0.193-0.498,0.193h-4.778
		c0,0.334,0.04,0.638,0.119,0.911c0.079,0.272,0.205,0.505,0.378,0.695s0.396,0.336,0.669,0.436s0.6,0.149,0.981,0.149
		c0.387,0,0.728-0.027,1.021-0.084c0.294-0.056,0.547-0.117,0.762-0.185c0.214-0.067,0.392-0.129,0.532-0.185
		s0.255-0.084,0.344-0.084c0.053,0,0.097,0.011,0.132,0.031s0.064,0.057,0.088,0.109c0.023,0.054,0.039,0.128,0.048,0.225
		s0.014,0.219,0.014,0.365c0,0.129-0.003,0.239-0.009,0.33s-0.015,0.169-0.026,0.233s-0.029,0.119-0.053,0.163
		s-0.055,0.086-0.093,0.127c-0.038,0.042-0.143,0.098-0.313,0.168s-0.387,0.139-0.651,0.206c-0.264,0.067-0.566,0.127-0.906,0.177
		s-0.704,0.074-1.091,0.074c-0.698,0-1.311-0.088-1.835-0.264c-0.525-0.176-0.964-0.443-1.316-0.801s-0.614-0.81-0.787-1.355
		c-0.174-0.546-0.26-1.186-0.26-1.919c0-0.698,0.091-1.327,0.272-1.888c0.182-0.56,0.446-1.035,0.792-1.426
		c0.347-0.39,0.768-0.688,1.264-0.893c0.495-0.206,1.054-0.309,1.676-0.309c0.657,0,1.22,0.097,1.686,0.291
		c0.467,0.193,0.85,0.462,1.148,0.805c0.3,0.344,0.52,0.75,0.66,1.219c0.141,0.47,0.211,0.98,0.211,1.531L31.21,8.396L31.21,8.396z
		 M29.062,7.763c0.018-0.622-0.106-1.11-0.374-1.465c-0.267-0.355-0.679-0.533-1.236-0.533c-0.281,0-0.526,0.053-0.734,0.159
		c-0.209,0.105-0.382,0.247-0.52,0.427c-0.138,0.179-0.243,0.39-0.316,0.634c-0.074,0.243-0.116,0.503-0.128,0.778
		C25.754,7.763,29.062,7.763,29.062,7.763z"/>
	<path fill="#37612F" d="M39.691,12.392c0.047,0.101,0.068,0.183,0.065,0.247s-0.045,0.117-0.127,0.158s-0.209,0.068-0.379,0.084
		c-0.17,0.014-0.396,0.021-0.678,0.021c-0.264,0-0.477-0.004-0.638-0.013s-0.288-0.026-0.379-0.054
		c-0.091-0.026-0.158-0.059-0.202-0.097s-0.078-0.086-0.102-0.145L35.8,9.803l-1.452,2.79c-0.024,0.059-0.057,0.106-0.098,0.145
		s-0.104,0.07-0.188,0.097c-0.086,0.027-0.204,0.045-0.356,0.054c-0.153,0.009-0.353,0.013-0.599,0.013
		c-0.259,0-0.464-0.008-0.616-0.021c-0.152-0.016-0.264-0.043-0.334-0.084c-0.071-0.041-0.107-0.094-0.11-0.158
		s0.021-0.146,0.074-0.247l2.174-3.863L32.29,4.902c-0.053-0.105-0.081-0.195-0.084-0.269s0.034-0.13,0.11-0.171
		s0.198-0.071,0.365-0.089s0.395-0.026,0.682-0.026c0.258,0,0.465,0.005,0.621,0.014C34.139,4.37,34.26,4.383,34.349,4.4
		c0.088,0.019,0.152,0.046,0.193,0.084s0.076,0.087,0.105,0.146l1.399,2.622l1.391-2.622c0.018-0.047,0.044-0.088,0.079-0.123
		s0.091-0.064,0.167-0.088s0.181-0.041,0.313-0.054c0.132-0.012,0.313-0.018,0.541-0.018c0.259,0,0.465,0.006,0.621,0.018
		c0.155,0.013,0.267,0.039,0.334,0.08s0.1,0.098,0.097,0.171s-0.036,0.169-0.101,0.286l-1.954,3.564L39.691,12.392z"/>
	<path fill="#37612F" d="M46.732,11.301c0,0.152-0.005,0.28-0.014,0.383s-0.021,0.189-0.035,0.26s-0.032,0.127-0.053,0.171
		c-0.021,0.045-0.066,0.101-0.137,0.168s-0.19,0.149-0.36,0.246c-0.171,0.097-0.364,0.184-0.581,0.26s-0.453,0.138-0.708,0.185
		c-0.256,0.047-0.519,0.07-0.788,0.07c-0.604,0-1.14-0.094-1.606-0.281c-0.466-0.188-0.857-0.465-1.175-0.832
		c-0.316-0.366-0.556-0.813-0.717-1.342c-0.162-0.528-0.242-1.133-0.242-1.813c0-0.786,0.098-1.465,0.295-2.037
		c0.196-0.572,0.471-1.046,0.822-1.421c0.353-0.376,0.769-0.654,1.25-0.836c0.481-0.183,1.009-0.273,1.584-0.273
		c0.234,0,0.465,0.021,0.691,0.062c0.226,0.041,0.437,0.097,0.634,0.168c0.196,0.07,0.372,0.149,0.527,0.237s0.266,0.164,0.33,0.229
		s0.11,0.119,0.137,0.163s0.047,0.102,0.062,0.172s0.026,0.156,0.035,0.259c0.009,0.104,0.014,0.228,0.014,0.374
		c0,0.341-0.03,0.58-0.089,0.718s-0.135,0.207-0.229,0.207c-0.1,0-0.205-0.041-0.316-0.123s-0.244-0.174-0.396-0.273
		s-0.334-0.19-0.546-0.272c-0.211-0.082-0.463-0.123-0.757-0.123c-0.574,0-1.015,0.222-1.319,0.664
		c-0.306,0.443-0.458,1.093-0.458,1.949c0,0.423,0.038,0.795,0.114,1.118c0.076,0.322,0.189,0.593,0.339,0.81
		s0.337,0.38,0.563,0.488c0.226,0.108,0.488,0.163,0.787,0.163c0.306,0,0.568-0.046,0.788-0.137s0.412-0.192,0.576-0.304
		s0.303-0.213,0.414-0.304s0.205-0.136,0.281-0.136c0.053,0,0.097,0.015,0.132,0.044s0.063,0.083,0.084,0.162
		s0.036,0.181,0.049,0.304C46.726,10.948,46.732,11.107,46.732,11.301z"/>
	<path fill="#37612F" d="M55.585,8.396c0,0.27-0.06,0.47-0.18,0.599c-0.121,0.129-0.286,0.193-0.498,0.193h-4.778
		c0,0.334,0.04,0.638,0.119,0.911c0.079,0.272,0.205,0.505,0.378,0.695s0.396,0.336,0.669,0.436s0.6,0.149,0.981,0.149
		c0.387,0,0.728-0.027,1.021-0.084c0.294-0.056,0.547-0.117,0.762-0.185c0.214-0.067,0.392-0.129,0.532-0.185
		s0.255-0.084,0.344-0.084c0.053,0,0.097,0.011,0.132,0.031s0.064,0.057,0.088,0.109c0.023,0.054,0.039,0.128,0.048,0.225
		s0.014,0.219,0.014,0.365c0,0.129-0.003,0.239-0.009,0.33s-0.015,0.169-0.026,0.233s-0.029,0.119-0.053,0.163
		s-0.055,0.086-0.093,0.127c-0.038,0.042-0.143,0.098-0.313,0.168s-0.387,0.139-0.651,0.206s-0.566,0.127-0.906,0.177
		s-0.704,0.074-1.091,0.074c-0.698,0-1.311-0.088-1.835-0.264c-0.525-0.176-0.964-0.443-1.316-0.801
		c-0.352-0.358-0.614-0.81-0.787-1.355c-0.174-0.546-0.26-1.186-0.26-1.919c0-0.698,0.091-1.327,0.272-1.888
		c0.182-0.56,0.446-1.035,0.792-1.426c0.347-0.39,0.768-0.688,1.264-0.893c0.495-0.206,1.054-0.309,1.676-0.309
		c0.657,0,1.22,0.097,1.686,0.291c0.467,0.193,0.85,0.462,1.148,0.805c0.3,0.344,0.52,0.75,0.66,1.219
		c0.141,0.47,0.211,0.98,0.211,1.531v0.356H55.585z M53.437,7.763c0.018-0.622-0.106-1.11-0.374-1.465
		c-0.267-0.355-0.679-0.533-1.236-0.533c-0.281,0-0.526,0.053-0.734,0.159c-0.209,0.105-0.382,0.247-0.52,0.427
		c-0.138,0.179-0.243,0.39-0.316,0.634c-0.074,0.243-0.116,0.503-0.128,0.778C50.129,7.763,53.437,7.763,53.437,7.763z"/>
	<path fill="#37612F" d="M59.661,12.551c0,0.059-0.018,0.109-0.054,0.153c-0.035,0.044-0.095,0.081-0.18,0.11
		s-0.198,0.051-0.339,0.066c-0.141,0.014-0.32,0.021-0.537,0.021s-0.396-0.008-0.537-0.021c-0.141-0.016-0.254-0.037-0.339-0.066
		s-0.145-0.066-0.18-0.11s-0.053-0.095-0.053-0.153V0.978c0-0.059,0.018-0.111,0.053-0.158s0.095-0.087,0.18-0.119
		s0.198-0.058,0.339-0.075S58.334,0.6,58.551,0.6s0.396,0.009,0.537,0.026s0.254,0.043,0.339,0.075s0.145,0.072,0.18,0.119
		c0.036,0.047,0.054,0.1,0.054,0.158V12.551z"/>
	<path fill="#37612F" d="M63.998,12.551c0,0.059-0.018,0.109-0.054,0.153c-0.035,0.044-0.095,0.081-0.18,0.11
		s-0.198,0.051-0.339,0.066c-0.141,0.014-0.32,0.021-0.537,0.021s-0.396-0.008-0.537-0.021c-0.141-0.016-0.254-0.037-0.339-0.066
		s-0.145-0.066-0.18-0.11s-0.053-0.095-0.053-0.153V0.978c0-0.059,0.018-0.111,0.053-0.158s0.095-0.087,0.18-0.119
		s0.198-0.058,0.339-0.075S62.671,0.6,62.888,0.6s0.396,0.009,0.537,0.026s0.254,0.043,0.339,0.075s0.145,0.072,0.18,0.119
		c0.036,0.047,0.054,0.1,0.054,0.158V12.551z"/>
	<path fill="#37612F" d="M73.458,8.396c0,0.27-0.06,0.47-0.18,0.599c-0.121,0.129-0.286,0.193-0.498,0.193h-4.778
		c0,0.334,0.04,0.638,0.119,0.911c0.079,0.272,0.205,0.505,0.378,0.695s0.396,0.336,0.669,0.436s0.6,0.149,0.981,0.149
		c0.387,0,0.728-0.027,1.021-0.084c0.294-0.056,0.547-0.117,0.762-0.185c0.214-0.067,0.392-0.129,0.532-0.185
		s0.255-0.084,0.344-0.084c0.053,0,0.097,0.011,0.132,0.031s0.064,0.057,0.088,0.109c0.023,0.054,0.039,0.128,0.048,0.225
		s0.014,0.219,0.014,0.365c0,0.129-0.003,0.239-0.009,0.33s-0.015,0.169-0.026,0.233s-0.029,0.119-0.053,0.163
		s-0.055,0.086-0.093,0.127c-0.038,0.042-0.143,0.098-0.313,0.168s-0.387,0.139-0.651,0.206s-0.566,0.127-0.906,0.177
		s-0.704,0.074-1.091,0.074c-0.698,0-1.311-0.088-1.835-0.264c-0.525-0.176-0.964-0.443-1.316-0.801
		c-0.352-0.358-0.614-0.81-0.787-1.355c-0.174-0.546-0.26-1.186-0.26-1.919c0-0.698,0.091-1.327,0.272-1.888
		c0.182-0.56,0.446-1.035,0.792-1.426c0.347-0.39,0.768-0.688,1.264-0.893c0.495-0.206,1.054-0.309,1.676-0.309
		c0.657,0,1.22,0.097,1.686,0.291c0.467,0.193,0.85,0.462,1.148,0.805c0.3,0.344,0.52,0.75,0.66,1.219
		c0.141,0.47,0.211,0.98,0.211,1.531L73.458,8.396L73.458,8.396z M71.31,7.763c0.018-0.622-0.106-1.11-0.374-1.465
		C70.67,5.942,70.257,5.765,69.7,5.765c-0.281,0-0.526,0.053-0.734,0.159c-0.209,0.105-0.382,0.247-0.52,0.427
		c-0.138,0.179-0.243,0.39-0.316,0.634c-0.074,0.243-0.116,0.503-0.128,0.778C68.002,7.763,71.31,7.763,71.31,7.763z"/>
	<path fill="#37612F" d="M82.724,12.551c0,0.059-0.018,0.109-0.053,0.153s-0.095,0.081-0.177,0.11s-0.194,0.051-0.339,0.066
		c-0.144,0.014-0.32,0.021-0.532,0.021c-0.217,0-0.397-0.008-0.541-0.021c-0.144-0.016-0.257-0.037-0.339-0.066
		s-0.141-0.066-0.176-0.11s-0.053-0.095-0.053-0.153V8.07c0-0.381-0.028-0.68-0.084-0.897s-0.137-0.403-0.242-0.559
		s-0.242-0.275-0.409-0.36c-0.167-0.086-0.362-0.128-0.585-0.128c-0.281,0-0.566,0.103-0.854,0.308
		c-0.288,0.206-0.587,0.505-0.897,0.897v5.22c0,0.059-0.018,0.109-0.054,0.153c-0.035,0.044-0.095,0.081-0.18,0.11
		s-0.198,0.051-0.339,0.066c-0.141,0.014-0.32,0.021-0.537,0.021s-0.396-0.008-0.537-0.021c-0.141-0.016-0.254-0.037-0.339-0.066
		s-0.145-0.066-0.18-0.11s-0.053-0.095-0.053-0.153V4.7c0-0.059,0.014-0.11,0.044-0.154c0.029-0.044,0.082-0.08,0.158-0.109
		s0.174-0.052,0.295-0.066c0.12-0.015,0.271-0.022,0.453-0.022c0.188,0,0.343,0.008,0.466,0.022
		c0.124,0.015,0.219,0.037,0.286,0.066s0.116,0.065,0.146,0.109s0.044,0.096,0.044,0.154v0.906c0.435-0.469,0.876-0.821,1.324-1.056
		c0.449-0.235,0.917-0.353,1.404-0.353c0.533,0,0.984,0.088,1.351,0.265c0.367,0.176,0.663,0.415,0.889,0.717
		c0.227,0.303,0.389,0.655,0.489,1.061c0.1,0.405,0.149,0.892,0.149,1.461v4.85H82.724z"/>
	<path fill="#37612F" d="M89.238,11.776c0,0.258-0.017,0.456-0.049,0.594s-0.074,0.234-0.127,0.29s-0.131,0.105-0.233,0.149
		c-0.103,0.045-0.224,0.083-0.361,0.115s-0.287,0.057-0.448,0.074c-0.162,0.018-0.324,0.026-0.488,0.026
		c-0.44,0-0.822-0.056-1.145-0.167s-0.59-0.283-0.801-0.515s-0.367-0.523-0.467-0.876c-0.1-0.352-0.149-0.769-0.149-1.25v-4.02
		h-0.941c-0.111,0-0.197-0.069-0.256-0.207s-0.088-0.368-0.088-0.69c0-0.17,0.008-0.314,0.022-0.432s0.036-0.21,0.065-0.277
		s0.066-0.115,0.11-0.145S83.978,4.4,84.037,4.4h0.933V2.649c0-0.059,0.017-0.111,0.049-0.158s0.091-0.087,0.176-0.119
		s0.199-0.056,0.343-0.07s0.32-0.022,0.532-0.022c0.217,0,0.396,0.007,0.541,0.021c0.144,0.015,0.257,0.038,0.339,0.07
		s0.141,0.072,0.176,0.119s0.053,0.1,0.053,0.158V4.4h1.707c0.059,0,0.11,0.016,0.154,0.045s0.081,0.077,0.11,0.145
		s0.051,0.16,0.065,0.277s0.022,0.262,0.022,0.432c0,0.322-0.029,0.553-0.088,0.69s-0.145,0.207-0.256,0.207h-1.716v3.688
		c0,0.429,0.067,0.75,0.202,0.964s0.376,0.321,0.722,0.321c0.117,0,0.224-0.011,0.317-0.031s0.177-0.044,0.251-0.07
		c0.073-0.026,0.135-0.05,0.185-0.07s0.095-0.031,0.137-0.031c0.035,0,0.068,0.011,0.101,0.031s0.058,0.062,0.075,0.123
		s0.033,0.146,0.048,0.251S89.238,11.611,89.238,11.776z"/>
</g>
</svg>
