<?xml version="1.0" encoding="utf-8"?>
<!-- Generator: Adobe Illustrator 17.0.0, SVG Export Plug-In . SVG Version: 6.00 Build 0)  -->
<!DOCTYPE svg PUBLIC "-//W3C//DTD SVG 1.1 Tiny//EN" "http://www.w3.org/Graphics/SVG/1.1/DTD/svg11-tiny.dtd">
<svg version="1.1" baseProfile="tiny" id="Layer_1" xmlns="http://www.w3.org/2000/svg" xmlns:xlink="http://www.w3.org/1999/xlink"
	 x="0px" y="0px" width="89.238px" height="15.918px" viewBox="0 0 89.238 15.918" overflow="scroll" xml:space="preserve">
<g id="a-none">
	<path fill="#9B262A" d="M7.596,11.487c0.627-0.691,1.26-1.383,1.898-2.074s1.304-1.38,1.995-2.065
		c0.047-0.053,0.098-0.089,0.153-0.11c0.056-0.02,0.123-0.014,0.203,0.018c0.078,0.033,0.174,0.092,0.285,0.176
		c0.111,0.086,0.249,0.21,0.413,0.374c0.152,0.158,0.269,0.29,0.347,0.396c0.08,0.105,0.131,0.196,0.154,0.272
		s0.024,0.141,0.004,0.193s-0.051,0.1-0.092,0.141L7.174,14.59c-0.088,0.094-0.182,0.167-0.281,0.22s-0.22,0.079-0.36,0.079
		c-0.129,0-0.243-0.025-0.343-0.075S5.991,14.69,5.891,14.59L0.108,8.807C0.061,8.766,0.029,8.719,0.011,8.666
		S-0.003,8.549,0.02,8.473S0.094,8.306,0.174,8.2c0.078-0.105,0.194-0.237,0.347-0.396C0.685,7.64,0.823,7.516,0.934,7.43
		c0.111-0.084,0.207-0.143,0.285-0.176c0.08-0.031,0.146-0.037,0.203-0.018c0.055,0.021,0.106,0.058,0.153,0.11
		C2.266,8.032,2.931,8.72,3.57,9.411s1.271,1.383,1.898,2.074V0.334c0-0.047,0.018-0.091,0.053-0.132s0.092-0.076,0.172-0.105
		c0.078-0.029,0.187-0.053,0.324-0.07S6.328,0,6.533,0s0.376,0.009,0.515,0.026c0.137,0.018,0.246,0.041,0.324,0.07
		c0.08,0.029,0.137,0.064,0.172,0.105s0.053,0.085,0.053,0.132L7.596,11.487L7.596,11.487z"/>
	<path fill="#9B262A" d="M31.432,12.489c0,0.059-0.018,0.109-0.053,0.154c-0.035,0.043-0.094,0.08-0.176,0.109
		s-0.195,0.051-0.338,0.066c-0.145,0.014-0.321,0.021-0.532,0.021c-0.217,0-0.397-0.008-0.54-0.021
		c-0.145-0.016-0.257-0.037-0.339-0.066s-0.141-0.066-0.176-0.109c-0.035-0.045-0.053-0.096-0.053-0.154V8.016
		c0-0.381-0.028-0.68-0.083-0.896c-0.057-0.217-0.137-0.402-0.242-0.558S28.659,6.286,28.493,6.2
		c-0.168-0.084-0.362-0.127-0.585-0.127c-0.281,0-0.565,0.103-0.853,0.308s-0.586,0.504-0.896,0.896v5.212
		c0,0.059-0.018,0.109-0.053,0.154c-0.035,0.043-0.096,0.08-0.18,0.109c-0.086,0.029-0.198,0.051-0.339,0.066
		c-0.141,0.014-0.319,0.021-0.536,0.021s-0.396-0.008-0.536-0.021c-0.141-0.016-0.254-0.037-0.339-0.066s-0.145-0.066-0.18-0.109
		c-0.035-0.045-0.053-0.096-0.053-0.154v-7.84c0-0.059,0.015-0.109,0.044-0.154c0.029-0.043,0.082-0.08,0.158-0.109
		s0.174-0.051,0.294-0.066c0.12-0.014,0.271-0.021,0.453-0.021c0.188,0,0.343,0.008,0.466,0.021
		c0.123,0.016,0.218,0.037,0.286,0.066c0.066,0.029,0.115,0.066,0.145,0.109c0.029,0.045,0.044,0.096,0.044,0.154v0.905
		c0.434-0.469,0.874-0.82,1.323-1.055c0.447-0.234,0.915-0.352,1.401-0.352c0.533,0,0.982,0.088,1.349,0.264
		s0.662,0.415,0.889,0.716c0.225,0.303,0.388,0.655,0.487,1.06s0.149,0.891,0.149,1.459L31.432,12.489L31.432,12.489z"/>
	<path fill="#9B262A" d="M41.567,8.49c0,0.668-0.088,1.277-0.264,1.828s-0.442,1.025-0.8,1.424s-0.806,0.706-1.345,0.923
		s-1.169,0.325-1.89,0.325c-0.697,0-1.304-0.097-1.819-0.29s-0.943-0.475-1.283-0.844s-0.592-0.823-0.756-1.362
		s-0.246-1.154-0.246-1.846c0-0.668,0.089-1.278,0.268-1.833c0.179-0.553,0.447-1.027,0.805-1.424
		c0.357-0.395,0.805-0.701,1.34-0.918c0.537-0.217,1.165-0.325,1.886-0.325c0.703,0,1.313,0.096,1.828,0.286s0.941,0.47,1.278,0.839
		s0.588,0.823,0.752,1.362S41.567,7.793,41.567,8.49z M39.291,8.578c0-0.387-0.03-0.743-0.093-1.067
		c-0.061-0.326-0.165-0.608-0.312-0.849S38.545,6.234,38.301,6.1s-0.549-0.202-0.918-0.202c-0.328,0-0.615,0.061-0.861,0.18
		c-0.246,0.121-0.448,0.297-0.606,0.527c-0.158,0.232-0.276,0.51-0.356,0.836c-0.078,0.324-0.118,0.695-0.118,1.111
		c0,0.387,0.032,0.742,0.097,1.068c0.064,0.324,0.168,0.607,0.313,0.848c0.143,0.24,0.338,0.426,0.584,0.559
		c0.246,0.131,0.551,0.197,0.914,0.197c0.334,0,0.624-0.06,0.87-0.18s0.448-0.295,0.606-0.523s0.275-0.506,0.352-0.83
		C39.253,9.364,39.291,8.994,39.291,8.578z"/>
	<path fill="#9B262A" d="M50.804,12.489c0,0.059-0.018,0.109-0.053,0.154c-0.035,0.043-0.094,0.08-0.176,0.109
		s-0.195,0.051-0.338,0.066c-0.145,0.014-0.321,0.021-0.532,0.021c-0.217,0-0.397-0.008-0.54-0.021
		c-0.145-0.016-0.257-0.037-0.339-0.066s-0.141-0.066-0.176-0.109c-0.035-0.045-0.053-0.096-0.053-0.154V8.016
		c0-0.381-0.028-0.68-0.083-0.896c-0.057-0.217-0.137-0.402-0.242-0.558S48.031,6.286,47.865,6.2
		c-0.168-0.084-0.362-0.127-0.585-0.127c-0.281,0-0.565,0.103-0.853,0.308s-0.586,0.504-0.896,0.896v5.212
		c0,0.059-0.018,0.109-0.053,0.154c-0.035,0.043-0.096,0.08-0.18,0.109c-0.086,0.029-0.198,0.051-0.339,0.066
		c-0.141,0.014-0.319,0.021-0.536,0.021s-0.396-0.008-0.536-0.021c-0.141-0.016-0.254-0.037-0.339-0.066s-0.145-0.066-0.18-0.109
		c-0.035-0.045-0.053-0.096-0.053-0.154v-7.84c0-0.059,0.015-0.109,0.044-0.154c0.029-0.043,0.082-0.08,0.158-0.109
		s0.174-0.051,0.294-0.066c0.12-0.014,0.271-0.021,0.453-0.021c0.188,0,0.343,0.008,0.466,0.021
		c0.123,0.016,0.218,0.037,0.286,0.066c0.066,0.029,0.115,0.066,0.145,0.109c0.029,0.045,0.044,0.096,0.044,0.154v0.905
		c0.434-0.469,0.874-0.82,1.323-1.055c0.447-0.234,0.915-0.352,1.401-0.352c0.533,0,0.982,0.088,1.349,0.264
		s0.662,0.415,0.889,0.716c0.225,0.303,0.388,0.655,0.487,1.06s0.149,0.891,0.149,1.459v4.843H50.804z"/>
	<path fill="#9B262A" d="M60.29,8.341c0,0.27-0.061,0.469-0.18,0.598c-0.121,0.129-0.286,0.193-0.497,0.193H54.84
		c0,0.334,0.039,0.637,0.119,0.91c0.078,0.271,0.204,0.504,0.377,0.693c0.173,0.191,0.396,0.336,0.668,0.436
		c0.273,0.1,0.6,0.149,0.98,0.149c0.387,0,0.727-0.027,1.02-0.083s0.546-0.117,0.76-0.186c0.214-0.066,0.392-0.128,0.532-0.184
		s0.255-0.084,0.343-0.084c0.053,0,0.097,0.011,0.132,0.031s0.064,0.057,0.088,0.109s0.04,0.127,0.048,0.225
		c0.01,0.096,0.014,0.218,0.014,0.364c0,0.129-0.003,0.239-0.009,0.329c-0.006,0.092-0.015,0.169-0.026,0.233
		s-0.029,0.118-0.053,0.163c-0.023,0.043-0.055,0.086-0.092,0.127c-0.039,0.041-0.143,0.097-0.313,0.167s-0.387,0.14-0.65,0.206
		c-0.264,0.067-0.565,0.126-0.905,0.176s-0.703,0.075-1.09,0.075c-0.697,0-1.309-0.088-1.833-0.264s-0.962-0.442-1.313-0.8
		s-0.614-0.809-0.786-1.354c-0.174-0.545-0.26-1.184-0.26-1.916c0-0.697,0.091-1.325,0.272-1.885s0.445-1.034,0.791-1.424
		s0.766-0.688,1.261-0.893s1.054-0.308,1.675-0.308c0.656,0,1.218,0.097,1.683,0.29c0.467,0.193,0.849,0.461,1.147,0.805
		c0.299,0.342,0.519,0.748,0.659,1.217s0.211,0.979,0.211,1.529C60.29,7.985,60.29,8.341,60.29,8.341z M58.145,7.708
		c0.018-0.621-0.107-1.108-0.373-1.463c-0.268-0.354-0.679-0.532-1.235-0.532c-0.281,0-0.526,0.053-0.733,0.158
		c-0.209,0.105-0.382,0.248-0.52,0.427s-0.243,0.39-0.316,0.633s-0.115,0.502-0.127,0.777C54.841,7.708,58.145,7.708,58.145,7.708z"
		/>
</g>
</svg>
