<?xml version="1.0" encoding="utf-8"?>
<!-- Generator: Adobe Illustrator 17.0.0, SVG Export Plug-In . SVG Version: 6.00 Build 0)  -->
<!DOCTYPE svg PUBLIC "-//W3C//DTD SVG 1.1 Tiny//EN" "http://www.w3.org/Graphics/SVG/1.1/DTD/svg11-tiny.dtd">
<svg version="1.1" baseProfile="tiny" id="Layer_1" xmlns="http://www.w3.org/2000/svg" xmlns:xlink="http://www.w3.org/1999/xlink"
	 x="0px" y="0px" width="89.238px" height="15.918px" viewBox="0 0 89.238 15.918" overflow="scroll" xml:space="preserve">
<g id="a-poor">
	<path fill="#F8981D" d="M9.787,9.37C9.735,8.444,9.692,7.504,9.66,6.549C9.627,5.594,9.612,4.633,9.612,3.666
		c0-0.07,0.014-0.133,0.039-0.188c0.027-0.056,0.08-0.102,0.158-0.137c0.08-0.035,0.189-0.062,0.33-0.079s0.328-0.026,0.563-0.026
		c0.211,0,0.385,0.011,0.523,0.031c0.137,0.021,0.244,0.048,0.32,0.083s0.127,0.078,0.154,0.128c0.025,0.05,0.039,0.106,0.039,0.171
		v8.174c0,0.275-0.082,0.495-0.246,0.659s-0.384,0.246-0.659,0.246H2.651c-0.064,0-0.122-0.01-0.172-0.031
		c-0.05-0.02-0.092-0.063-0.127-0.131S2.29,12.4,2.273,12.271s-0.026-0.299-0.026-0.51c0-0.234,0.009-0.422,0.026-0.563
		s0.044-0.249,0.079-0.325s0.079-0.126,0.132-0.149s0.114-0.035,0.185-0.035c0.961,0,1.905,0.018,2.834,0.053
		s1.856,0.079,2.782,0.132L0.058,2.646C0.023,2.611,0.003,2.567,0,2.515s0.014-0.119,0.049-0.197c0.035-0.08,0.095-0.172,0.18-0.277
		S0.43,1.809,0.577,1.662S0.85,1.4,0.959,1.315C1.067,1.23,1.16,1.17,1.241,1.135C1.319,1.1,1.383,1.085,1.434,1.091
		c0.049,0.006,0.089,0.023,0.118,0.053L9.787,9.37z"/>
	<path fill="#F8981D" d="M31.332,8.395c0,0.697-0.074,1.326-0.225,1.886c-0.148,0.56-0.367,1.035-0.654,1.428
		s-0.645,0.694-1.072,0.905s-0.917,0.316-1.468,0.316c-0.229,0-0.438-0.022-0.628-0.065c-0.191-0.045-0.376-0.112-0.555-0.203
		c-0.179-0.09-0.355-0.203-0.531-0.338s-0.357-0.293-0.545-0.475v3.691c0,0.059-0.018,0.111-0.053,0.158s-0.096,0.086-0.18,0.119
		c-0.086,0.031-0.198,0.057-0.339,0.074s-0.319,0.026-0.536,0.026s-0.396-0.009-0.536-0.026s-0.254-0.043-0.339-0.074
		c-0.085-0.033-0.145-0.072-0.18-0.119s-0.053-0.1-0.053-0.158V4.589c0-0.059,0.015-0.109,0.044-0.154
		c0.029-0.043,0.08-0.08,0.153-0.109s0.17-0.051,0.291-0.066c0.119-0.014,0.271-0.021,0.452-0.021c0.176,0,0.323,0.008,0.444,0.021
		c0.119,0.016,0.216,0.037,0.289,0.066s0.125,0.066,0.154,0.109c0.029,0.045,0.044,0.096,0.044,0.154v0.923
		c0.229-0.234,0.452-0.44,0.673-0.62c0.219-0.178,0.443-0.327,0.672-0.447s0.464-0.21,0.707-0.269s0.503-0.088,0.778-0.088
		c0.574,0,1.063,0.113,1.468,0.339s0.734,0.534,0.988,0.927c0.256,0.393,0.441,0.85,0.559,1.371S31.332,7.803,31.332,8.395z
		 M29.03,8.553c0-0.334-0.025-0.655-0.074-0.962C28.905,7.282,28.82,7.009,28.7,6.769s-0.278-0.432-0.475-0.576
		c-0.196-0.143-0.44-0.215-0.733-0.215c-0.146,0-0.292,0.021-0.435,0.066c-0.145,0.043-0.291,0.115-0.439,0.215
		c-0.15,0.1-0.304,0.229-0.462,0.387S25.83,7,25.655,7.234v2.584c0.311,0.393,0.606,0.696,0.888,0.909
		c0.281,0.215,0.574,0.321,0.879,0.321c0.287,0,0.532-0.073,0.733-0.22c0.203-0.146,0.368-0.338,0.497-0.576
		c0.129-0.236,0.224-0.505,0.286-0.804C28.998,9.15,29.03,8.852,29.03,8.553z"/>
	<path fill="#F8981D" d="M41.063,8.43c0,0.668-0.088,1.277-0.264,1.828s-0.442,1.025-0.8,1.424s-0.806,0.706-1.345,0.923
		s-1.169,0.325-1.89,0.325c-0.697,0-1.304-0.097-1.819-0.29s-0.943-0.475-1.283-0.844s-0.592-0.823-0.756-1.362
		S32.66,9.279,32.66,8.588c0-0.668,0.089-1.278,0.268-1.833c0.179-0.553,0.447-1.027,0.805-1.424
		c0.357-0.395,0.805-0.701,1.34-0.918c0.537-0.217,1.165-0.325,1.886-0.325c0.703,0,1.313,0.096,1.828,0.286s0.941,0.47,1.278,0.839
		s0.588,0.823,0.752,1.362S41.063,7.732,41.063,8.43z M38.786,8.518c0-0.387-0.03-0.743-0.093-1.067
		c-0.061-0.326-0.165-0.608-0.312-0.849s-0.342-0.428-0.585-0.563s-0.549-0.202-0.918-0.202c-0.328,0-0.615,0.061-0.861,0.18
		c-0.246,0.121-0.448,0.297-0.606,0.527c-0.158,0.232-0.276,0.51-0.356,0.836c-0.078,0.324-0.118,0.695-0.118,1.111
		c0,0.387,0.032,0.742,0.097,1.068c0.064,0.324,0.168,0.607,0.313,0.848c0.143,0.24,0.338,0.426,0.584,0.559
		c0.246,0.131,0.551,0.197,0.914,0.197c0.334,0,0.624-0.06,0.87-0.18s0.448-0.295,0.606-0.523s0.275-0.506,0.352-0.83
		C38.748,9.304,38.786,8.934,38.786,8.518z"/>
	<path fill="#F8981D" d="M50.74,8.43c0,0.668-0.088,1.277-0.264,1.828s-0.442,1.025-0.8,1.424s-0.806,0.706-1.345,0.923
		s-1.169,0.325-1.89,0.325c-0.697,0-1.304-0.097-1.819-0.29s-0.943-0.475-1.283-0.844s-0.592-0.823-0.756-1.362
		s-0.246-1.154-0.246-1.846c0-0.668,0.089-1.278,0.268-1.833c0.179-0.553,0.447-1.027,0.805-1.424
		c0.357-0.395,0.805-0.701,1.34-0.918c0.537-0.217,1.165-0.325,1.886-0.325c0.703,0,1.313,0.096,1.828,0.286s0.941,0.47,1.278,0.839
		s0.588,0.823,0.752,1.362S50.74,7.732,50.74,8.43z M48.463,8.518c0-0.387-0.03-0.743-0.093-1.067
		c-0.061-0.326-0.165-0.608-0.312-0.849s-0.342-0.428-0.585-0.563s-0.549-0.202-0.918-0.202c-0.328,0-0.615,0.061-0.861,0.18
		c-0.246,0.121-0.448,0.297-0.606,0.527c-0.158,0.232-0.276,0.51-0.356,0.836c-0.078,0.324-0.118,0.695-0.118,1.111
		c0,0.387,0.032,0.742,0.097,1.068c0.064,0.324,0.168,0.607,0.313,0.848c0.143,0.24,0.338,0.426,0.584,0.559
		c0.246,0.131,0.551,0.197,0.914,0.197c0.334,0,0.624-0.06,0.87-0.18s0.448-0.295,0.606-0.523s0.275-0.506,0.352-0.83
		C48.425,9.304,48.463,8.934,48.463,8.518z"/>
	<path fill="#F8981D" d="M57.578,5.318c0,0.211-0.006,0.384-0.018,0.519s-0.029,0.24-0.053,0.316s-0.055,0.129-0.093,0.158
		s-0.086,0.044-0.145,0.044c-0.047,0-0.1-0.01-0.158-0.03s-0.125-0.043-0.197-0.066c-0.074-0.023-0.154-0.045-0.242-0.066
		c-0.088-0.02-0.185-0.03-0.29-0.03c-0.123,0-0.246,0.025-0.369,0.075s-0.251,0.127-0.382,0.232
		c-0.133,0.105-0.271,0.246-0.414,0.422s-0.297,0.393-0.461,0.65v4.887c0,0.059-0.018,0.109-0.053,0.154
		c-0.035,0.043-0.096,0.08-0.18,0.109c-0.086,0.029-0.198,0.051-0.339,0.066c-0.141,0.014-0.319,0.021-0.536,0.021
		s-0.396-0.008-0.536-0.021c-0.141-0.016-0.254-0.037-0.339-0.066s-0.145-0.066-0.18-0.109c-0.035-0.045-0.053-0.096-0.053-0.154
		v-7.84c0-0.059,0.015-0.109,0.044-0.154c0.029-0.043,0.082-0.08,0.158-0.109s0.174-0.051,0.294-0.066
		c0.12-0.014,0.271-0.021,0.453-0.021c0.188,0,0.343,0.008,0.466,0.021c0.123,0.016,0.218,0.037,0.286,0.066
		c0.066,0.029,0.115,0.066,0.145,0.109c0.029,0.045,0.044,0.096,0.044,0.154v0.976c0.205-0.293,0.398-0.534,0.58-0.726
		c0.182-0.189,0.354-0.341,0.519-0.452s0.328-0.188,0.492-0.233c0.164-0.043,0.328-0.065,0.492-0.065
		c0.076,0,0.158,0.005,0.246,0.013c0.088,0.01,0.179,0.024,0.272,0.045s0.176,0.043,0.246,0.07c0.07,0.025,0.121,0.054,0.153,0.083
		s0.056,0.062,0.07,0.097s0.028,0.084,0.04,0.145c0.012,0.063,0.021,0.154,0.026,0.277S57.578,5.107,57.578,5.318z"/>
</g>
</svg>
