<?xml version="1.0" encoding="utf-8"?>
<!-- Generator: Adobe Illustrator 17.0.0, SVG Export Plug-In . SVG Version: 6.00 Build 0)  -->
<!DOCTYPE svg PUBLIC "-//W3C//DTD SVG 1.1 Tiny//EN" "http://www.w3.org/Graphics/SVG/1.1/DTD/svg11-tiny.dtd">
<svg version="1.1" baseProfile="tiny" id="Layer_1" xmlns="http://www.w3.org/2000/svg" xmlns:xlink="http://www.w3.org/1999/xlink"
	 x="0px" y="0px" width="89.238px" height="15.918px" viewBox="0 0 89.238 15.918" overflow="scroll" xml:space="preserve">
<g id="o-good">
	<g>
		<path fill="#8C9538" d="M14.699,7.313c0,1.395-0.495,2.587-1.485,3.577s-2.183,1.485-3.577,1.485S7.05,11.88,6.06,10.89
			S4.574,8.708,4.574,7.313s0.495-2.587,1.485-3.577s2.183-1.485,3.577-1.485s2.587,0.495,3.577,1.485S14.699,5.919,14.699,7.313z"
			/>
	</g>
	<g>
		<path fill="none" stroke="#8C9538" stroke-width="0.5143" stroke-miterlimit="10" d="M14.699,7.313
			c0,1.395-0.495,2.587-1.485,3.577s-2.183,1.485-3.577,1.485S7.05,11.88,6.06,10.89S4.574,8.708,4.574,7.313
			s0.495-2.587,1.485-3.577s2.183-1.485,3.577-1.485s2.587,0.495,3.577,1.485S14.699,5.919,14.699,7.313z"/>
	</g>
	<g>
		<path fill="#8C9538" d="M30.92,5.116c0,0.281-0.032,0.489-0.097,0.624s-0.144,0.202-0.237,0.202h-0.923
			c0.129,0.141,0.221,0.301,0.276,0.479c0.056,0.18,0.084,0.365,0.084,0.559c0,0.457-0.076,0.863-0.229,1.217
			c-0.152,0.355-0.371,0.654-0.654,0.896c-0.285,0.244-0.628,0.429-1.029,0.555s-0.848,0.188-1.34,0.188
			c-0.252,0-0.492-0.03-0.721-0.093c-0.229-0.061-0.404-0.133-0.527-0.215c-0.07,0.076-0.134,0.167-0.189,0.272
			s-0.083,0.223-0.083,0.352c0,0.17,0.075,0.31,0.224,0.417c0.15,0.109,0.359,0.169,0.629,0.181l1.907,0.07
			c0.445,0.018,0.842,0.081,1.19,0.188c0.349,0.109,0.643,0.262,0.879,0.457c0.238,0.197,0.419,0.433,0.545,0.708
			s0.189,0.589,0.189,0.94c0,0.387-0.085,0.752-0.255,1.094c-0.17,0.344-0.425,0.641-0.765,0.893s-0.767,0.451-1.279,0.598
			s-1.111,0.22-1.797,0.22c-0.668,0-1.238-0.053-1.709-0.158c-0.473-0.105-0.859-0.252-1.16-0.439
			c-0.303-0.188-0.522-0.412-0.66-0.673s-0.206-0.546-0.206-0.856c0-0.193,0.024-0.378,0.075-0.554
			c0.049-0.176,0.123-0.345,0.219-0.506c0.098-0.16,0.216-0.314,0.356-0.461s0.302-0.287,0.483-0.422
			c-0.252-0.135-0.447-0.317-0.584-0.549c-0.139-0.231-0.207-0.485-0.207-0.761c0-0.346,0.079-0.66,0.237-0.944
			s0.363-0.541,0.615-0.77c-0.205-0.205-0.369-0.451-0.492-0.738S23.5,7.442,23.5,7.015c0-0.457,0.08-0.865,0.242-1.227
			c0.16-0.359,0.385-0.664,0.672-0.914c0.287-0.248,0.63-0.439,1.028-0.57c0.398-0.133,0.838-0.198,1.318-0.198
			c0.246,0,0.481,0.015,0.708,0.044c0.225,0.029,0.435,0.07,0.628,0.123h2.487c0.1,0,0.18,0.064,0.242,0.193
			C30.888,4.595,30.92,4.812,30.92,5.116z M28.599,13.229c0-0.264-0.105-0.466-0.316-0.606s-0.501-0.217-0.87-0.229L25.84,12.35
			c-0.152,0.111-0.274,0.219-0.365,0.321s-0.164,0.2-0.219,0.294c-0.057,0.094-0.093,0.185-0.11,0.272s-0.026,0.179-0.026,0.272
			c0,0.293,0.147,0.516,0.443,0.668s0.714,0.229,1.253,0.229c0.334,0,0.615-0.034,0.844-0.101c0.229-0.068,0.413-0.157,0.554-0.269
			s0.24-0.236,0.299-0.374S28.599,13.381,28.599,13.229z M28.081,6.971c0-0.422-0.117-0.75-0.352-0.984s-0.565-0.352-0.993-0.352
			c-0.217,0-0.407,0.037-0.571,0.11s-0.301,0.173-0.409,0.299s-0.188,0.271-0.241,0.439c-0.053,0.166-0.079,0.341-0.079,0.522
			c0,0.398,0.117,0.714,0.352,0.944c0.234,0.232,0.56,0.348,0.976,0.348c0.223,0,0.416-0.035,0.58-0.105s0.3-0.167,0.409-0.29
			c0.107-0.123,0.189-0.265,0.246-0.427C28.052,7.315,28.081,7.146,28.081,6.971z"/>
		<path fill="#8C9538" d="M40.189,8.412c0,0.668-0.088,1.277-0.264,1.828s-0.442,1.025-0.8,1.424s-0.806,0.706-1.345,0.923
			s-1.169,0.325-1.89,0.325c-0.697,0-1.304-0.097-1.819-0.29s-0.943-0.475-1.283-0.844s-0.592-0.823-0.756-1.362
			s-0.246-1.154-0.246-1.846c0-0.668,0.089-1.278,0.268-1.833c0.179-0.553,0.447-1.027,0.805-1.424
			c0.357-0.395,0.805-0.701,1.34-0.918c0.537-0.217,1.165-0.325,1.886-0.325c0.703,0,1.313,0.096,1.828,0.286
			s0.941,0.47,1.278,0.839s0.588,0.823,0.752,1.362S40.189,7.715,40.189,8.412z M37.913,8.5c0-0.387-0.03-0.743-0.093-1.067
			c-0.061-0.326-0.165-0.608-0.312-0.849s-0.342-0.428-0.585-0.563s-0.549-0.202-0.918-0.202c-0.328,0-0.615,0.061-0.861,0.18
			c-0.246,0.121-0.448,0.297-0.606,0.527c-0.158,0.232-0.276,0.51-0.356,0.836c-0.078,0.324-0.118,0.695-0.118,1.111
			c0,0.387,0.032,0.742,0.097,1.068c0.064,0.324,0.168,0.607,0.313,0.848c0.143,0.24,0.338,0.426,0.584,0.559
			c0.246,0.131,0.551,0.197,0.914,0.197c0.334,0,0.624-0.06,0.87-0.18s0.448-0.295,0.606-0.523s0.275-0.506,0.352-0.83
			C37.875,9.286,37.913,8.916,37.913,8.5z"/>
		<path fill="#8C9538" d="M49.866,8.412c0,0.668-0.088,1.277-0.264,1.828s-0.442,1.025-0.8,1.424s-0.806,0.706-1.345,0.923
			s-1.169,0.325-1.89,0.325c-0.697,0-1.304-0.097-1.819-0.29s-0.943-0.475-1.283-0.844s-0.592-0.823-0.756-1.362
			s-0.246-1.154-0.246-1.846c0-0.668,0.089-1.278,0.268-1.833c0.179-0.553,0.447-1.027,0.805-1.424
			c0.357-0.395,0.805-0.701,1.34-0.918c0.537-0.217,1.165-0.325,1.886-0.325c0.703,0,1.313,0.096,1.828,0.286
			s0.941,0.47,1.278,0.839s0.588,0.823,0.752,1.362S49.866,7.715,49.866,8.412z M47.589,8.5c0-0.387-0.03-0.743-0.093-1.067
			c-0.061-0.326-0.165-0.608-0.312-0.849S46.843,6.156,46.6,6.021s-0.549-0.202-0.918-0.202c-0.328,0-0.615,0.061-0.861,0.18
			c-0.246,0.121-0.448,0.297-0.606,0.527c-0.158,0.232-0.276,0.51-0.356,0.836C43.78,7.687,43.74,8.058,43.74,8.474
			c0,0.387,0.032,0.742,0.097,1.068c0.064,0.324,0.168,0.607,0.313,0.848c0.143,0.24,0.338,0.426,0.584,0.559
			c0.246,0.131,0.551,0.197,0.914,0.197c0.334,0,0.624-0.06,0.87-0.18s0.448-0.295,0.606-0.523s0.275-0.506,0.352-0.83
			C47.551,9.286,47.589,8.916,47.589,8.5z"/>
		<path fill="#8C9538" d="M59.104,12.411c0,0.064-0.015,0.119-0.044,0.162c-0.029,0.045-0.079,0.081-0.149,0.11
			s-0.166,0.05-0.285,0.062c-0.121,0.012-0.269,0.018-0.444,0.018c-0.188,0-0.34-0.006-0.457-0.018s-0.213-0.032-0.286-0.062
			s-0.126-0.065-0.158-0.11c-0.032-0.043-0.048-0.098-0.048-0.162v-0.87c-0.404,0.434-0.828,0.771-1.271,1.011
			s-0.933,0.36-1.472,0.36c-0.598,0-1.103-0.116-1.517-0.347c-0.412-0.231-0.75-0.544-1.01-0.937
			c-0.262-0.393-0.45-0.851-0.567-1.376c-0.117-0.523-0.176-1.076-0.176-1.656c0-0.697,0.075-1.324,0.224-1.881
			c0.15-0.557,0.368-1.031,0.655-1.424s0.645-0.694,1.072-0.905s0.92-0.316,1.477-0.316c0.439,0,0.838,0.09,1.195,0.269
			s0.712,0.44,1.063,0.786V0.88c0-0.059,0.016-0.111,0.049-0.158c0.031-0.047,0.09-0.086,0.176-0.119
			c0.084-0.031,0.197-0.057,0.338-0.074s0.319-0.026,0.536-0.026s0.396,0.009,0.536,0.026s0.252,0.043,0.334,0.074
			c0.082,0.033,0.141,0.072,0.176,0.119s0.053,0.1,0.053,0.158V12.411z M56.907,7.173c-0.316-0.398-0.619-0.703-0.91-0.914
			c-0.289-0.211-0.593-0.316-0.909-0.316c-0.287,0-0.535,0.072-0.743,0.215c-0.208,0.145-0.375,0.336-0.5,0.576
			c-0.127,0.24-0.221,0.509-0.281,0.805c-0.063,0.296-0.093,0.599-0.093,0.909c0,0.328,0.026,0.647,0.079,0.958
			s0.139,0.588,0.26,0.83c0.119,0.244,0.279,0.438,0.479,0.585s0.451,0.22,0.756,0.22c0.152,0,0.3-0.021,0.443-0.066
			c0.144-0.043,0.291-0.115,0.439-0.215c0.15-0.1,0.304-0.229,0.462-0.391s0.331-0.359,0.519-0.594V7.173H56.907z"/>
	</g>
</g>
</svg>
