<?xml version="1.0" encoding="utf-8"?>
<!-- Generator: Adobe Illustrator 17.0.0, SVG Export Plug-In . SVG Version: 6.00 Build 0)  -->
<!DOCTYPE svg PUBLIC "-//W3C//DTD SVG 1.1 Tiny//EN" "http://www.w3.org/Graphics/SVG/1.1/DTD/svg11-tiny.dtd">
<svg version="1.1" baseProfile="tiny" id="Layer_1" xmlns="http://www.w3.org/2000/svg" xmlns:xlink="http://www.w3.org/1999/xlink"
	 x="0px" y="0px" width="89.238px" height="15.918px" viewBox="0 0 89.238 15.918" overflow="scroll" xml:space="preserve">
<g id="o-none">
	<g>
		<path fill="#9B2629" d="M14.626,7.191c0,1.395-0.495,2.587-1.485,3.577s-2.183,1.485-3.577,1.485s-2.587-0.495-3.577-1.485
			S4.501,8.585,4.501,7.191s0.495-2.587,1.485-3.577s2.183-1.485,3.577-1.485s2.587,0.495,3.577,1.485S14.626,5.796,14.626,7.191z"
			/>
	</g>
	<g>
		<path fill="none" stroke="#9B2629" stroke-width="0.5143" stroke-miterlimit="10" d="M14.626,7.191
			c0,1.395-0.495,2.587-1.485,3.577s-2.183,1.485-3.577,1.485s-2.587-0.495-3.577-1.485S4.501,8.585,4.501,7.191
			s0.495-2.587,1.485-3.577s2.183-1.485,3.577-1.485s2.587,0.495,3.577,1.485S14.626,5.796,14.626,7.191z"/>
	</g>
	<g>
		<path fill="#9B262A" d="M31.268,12.289c0,0.059-0.018,0.109-0.053,0.154c-0.035,0.043-0.094,0.08-0.176,0.109
			s-0.195,0.051-0.338,0.066c-0.145,0.014-0.321,0.021-0.532,0.021c-0.217,0-0.397-0.008-0.54-0.021
			c-0.145-0.016-0.257-0.037-0.339-0.066s-0.141-0.066-0.176-0.109c-0.035-0.045-0.053-0.096-0.053-0.154V7.815
			c0-0.381-0.028-0.68-0.083-0.896c-0.057-0.217-0.137-0.402-0.242-0.558S28.495,6.085,28.329,6
			c-0.168-0.084-0.362-0.127-0.585-0.127c-0.281,0-0.565,0.103-0.853,0.308s-0.586,0.504-0.896,0.896v5.212
			c0,0.059-0.018,0.109-0.053,0.154c-0.035,0.043-0.096,0.08-0.18,0.109c-0.086,0.029-0.198,0.051-0.339,0.066
			c-0.141,0.014-0.319,0.021-0.536,0.021s-0.396-0.008-0.536-0.021c-0.141-0.016-0.254-0.037-0.339-0.066s-0.145-0.066-0.18-0.109
			c-0.035-0.045-0.053-0.096-0.053-0.154v-7.84c0-0.059,0.015-0.109,0.044-0.154c0.029-0.043,0.082-0.08,0.158-0.109
			s0.174-0.051,0.294-0.066c0.12-0.014,0.271-0.021,0.453-0.021c0.188,0,0.343,0.008,0.466,0.021
			c0.123,0.016,0.218,0.037,0.286,0.066c0.066,0.029,0.115,0.066,0.145,0.109c0.029,0.045,0.044,0.096,0.044,0.154v0.905
			c0.434-0.469,0.874-0.82,1.323-1.055c0.447-0.234,0.915-0.352,1.401-0.352c0.533,0,0.982,0.088,1.349,0.264
			s0.662,0.415,0.889,0.716c0.225,0.303,0.388,0.655,0.487,1.06s0.149,0.891,0.149,1.459L31.268,12.289L31.268,12.289z"/>
		<path fill="#9B262A" d="M41.403,8.29c0,0.668-0.088,1.277-0.264,1.828s-0.442,1.025-0.8,1.424s-0.806,0.706-1.345,0.923
			s-1.169,0.325-1.89,0.325c-0.697,0-1.304-0.097-1.819-0.29s-0.943-0.475-1.283-0.844s-0.592-0.823-0.756-1.362S33,9.14,33,8.448
			c0-0.668,0.089-1.278,0.268-1.833c0.179-0.553,0.447-1.027,0.805-1.424c0.357-0.395,0.805-0.701,1.34-0.918
			c0.537-0.217,1.165-0.325,1.886-0.325c0.703,0,1.313,0.096,1.828,0.286s0.941,0.47,1.278,0.839s0.588,0.823,0.752,1.362
			S41.403,7.592,41.403,8.29z M39.127,8.377c0-0.387-0.03-0.743-0.093-1.067c-0.061-0.326-0.165-0.608-0.312-0.849
			s-0.342-0.428-0.585-0.563s-0.549-0.202-0.918-0.202c-0.328,0-0.615,0.061-0.861,0.18c-0.246,0.121-0.448,0.297-0.606,0.527
			c-0.158,0.232-0.276,0.51-0.356,0.836c-0.078,0.324-0.118,0.695-0.118,1.111c0,0.387,0.032,0.742,0.097,1.068
			c0.064,0.324,0.168,0.607,0.313,0.848c0.143,0.24,0.338,0.426,0.584,0.559c0.246,0.131,0.551,0.197,0.914,0.197
			c0.334,0,0.624-0.06,0.87-0.18s0.448-0.295,0.606-0.523s0.275-0.506,0.352-0.83C39.088,9.164,39.127,8.793,39.127,8.377z"/>
		<path fill="#9B262A" d="M50.64,12.289c0,0.059-0.018,0.109-0.053,0.154c-0.035,0.043-0.094,0.08-0.176,0.109
			s-0.195,0.051-0.338,0.066c-0.145,0.014-0.321,0.021-0.532,0.021c-0.217,0-0.397-0.008-0.54-0.021
			c-0.145-0.016-0.257-0.037-0.339-0.066s-0.141-0.066-0.176-0.109c-0.035-0.045-0.053-0.096-0.053-0.154V7.815
			c0-0.381-0.028-0.68-0.083-0.896c-0.057-0.217-0.137-0.402-0.242-0.558S47.867,6.085,47.701,6
			c-0.168-0.084-0.362-0.127-0.585-0.127c-0.281,0-0.565,0.103-0.853,0.308s-0.586,0.504-0.896,0.896v5.212
			c0,0.059-0.018,0.109-0.053,0.154c-0.035,0.043-0.096,0.08-0.18,0.109c-0.086,0.029-0.198,0.051-0.339,0.066
			c-0.141,0.014-0.319,0.021-0.536,0.021s-0.396-0.008-0.536-0.021c-0.141-0.016-0.254-0.037-0.339-0.066s-0.145-0.066-0.18-0.109
			c-0.035-0.045-0.053-0.096-0.053-0.154v-7.84c0-0.059,0.015-0.109,0.044-0.154c0.029-0.043,0.082-0.08,0.158-0.109
			s0.174-0.051,0.294-0.066c0.12-0.014,0.271-0.021,0.453-0.021c0.188,0,0.343,0.008,0.466,0.021
			c0.123,0.016,0.218,0.037,0.286,0.066c0.066,0.029,0.115,0.066,0.145,0.109c0.029,0.045,0.044,0.096,0.044,0.154v0.905
			c0.434-0.469,0.874-0.82,1.323-1.055c0.447-0.234,0.915-0.352,1.401-0.352c0.533,0,0.982,0.088,1.349,0.264
			s0.662,0.415,0.889,0.716c0.225,0.303,0.388,0.655,0.487,1.06s0.149,0.891,0.149,1.459v4.843H50.64z"/>
		<path fill="#9B262A" d="M60.126,8.14c0,0.27-0.061,0.469-0.18,0.598c-0.121,0.129-0.286,0.193-0.497,0.193h-4.772
			c0,0.334,0.039,0.637,0.119,0.91c0.078,0.271,0.204,0.504,0.377,0.693c0.173,0.191,0.396,0.336,0.668,0.436
			c0.273,0.1,0.6,0.149,0.98,0.149c0.387,0,0.727-0.027,1.02-0.083s0.546-0.117,0.76-0.186c0.214-0.066,0.392-0.128,0.532-0.184
			s0.255-0.084,0.343-0.084c0.053,0,0.097,0.011,0.132,0.031s0.064,0.057,0.088,0.109s0.04,0.127,0.048,0.225
			c0.01,0.096,0.014,0.218,0.014,0.364c0,0.129-0.003,0.239-0.009,0.329c-0.006,0.092-0.015,0.169-0.026,0.233
			s-0.029,0.118-0.053,0.163c-0.023,0.043-0.055,0.086-0.092,0.127c-0.039,0.041-0.143,0.097-0.313,0.167s-0.387,0.14-0.65,0.206
			c-0.264,0.067-0.565,0.126-0.905,0.176s-0.703,0.075-1.09,0.075c-0.697,0-1.309-0.088-1.833-0.264s-0.962-0.442-1.313-0.8
			s-0.614-0.809-0.786-1.354c-0.174-0.545-0.26-1.184-0.26-1.916c0-0.697,0.091-1.325,0.272-1.885s0.445-1.034,0.791-1.424
			s0.766-0.688,1.261-0.893s1.054-0.308,1.675-0.308c0.656,0,1.218,0.097,1.683,0.29c0.467,0.193,0.849,0.461,1.147,0.805
			c0.299,0.342,0.519,0.748,0.659,1.217s0.211,0.979,0.211,1.529L60.126,8.14L60.126,8.14z M57.981,7.507
			c0.018-0.621-0.107-1.108-0.373-1.463c-0.268-0.354-0.679-0.532-1.235-0.532c-0.281,0-0.526,0.053-0.733,0.158
			c-0.209,0.105-0.382,0.248-0.52,0.427s-0.243,0.39-0.316,0.633s-0.115,0.502-0.127,0.777C54.677,7.507,57.981,7.507,57.981,7.507z
			"/>
	</g>
</g>
</svg>
