<?xml version="1.0" encoding="utf-8"?>
<!-- Generator: Adobe Illustrator 17.0.0, SVG Export Plug-In . SVG Version: 6.00 Build 0)  -->
<!DOCTYPE svg PUBLIC "-//W3C//DTD SVG 1.1 Tiny//EN" "http://www.w3.org/Graphics/SVG/1.1/DTD/svg11-tiny.dtd">
<svg version="1.1" baseProfile="tiny" id="Layer_1" xmlns="http://www.w3.org/2000/svg" xmlns:xlink="http://www.w3.org/1999/xlink"
	 x="0px" y="0px" width="89.238px" height="15.918px" viewBox="0 0 89.238 15.918" overflow="scroll" xml:space="preserve">
<g id="o-standard">
	<g>
		<path fill="#E3CE1F" d="M14.699,7.26c0,1.395-0.495,2.587-1.485,3.577s-2.183,1.485-3.577,1.485S7.05,11.827,6.06,10.837
			S4.574,8.655,4.574,7.26s0.495-2.587,1.485-3.577s2.183-1.485,3.577-1.485s2.587,0.495,3.577,1.485S14.699,5.866,14.699,7.26z"/>
	</g>
	<g>
		<path fill="none" stroke="#E3CE1F" stroke-width="0.5143" stroke-miterlimit="10" d="M14.699,7.26
			c0,1.395-0.495,2.587-1.485,3.577s-2.183,1.485-3.577,1.485S7.05,11.827,6.06,10.837S4.574,8.655,4.574,7.26
			s0.495-2.587,1.485-3.577s2.183-1.485,3.577-1.485s2.587,0.495,3.577,1.485S14.699,5.866,14.699,7.26z"/>
	</g>
	<g>
		<path fill="#E3CD1F" d="M29.373,10.143c0,0.445-0.084,0.838-0.25,1.178c-0.168,0.34-0.403,0.624-0.708,0.853
			s-0.665,0.399-1.081,0.515c-0.416,0.113-0.867,0.171-1.354,0.171c-0.293,0-0.573-0.022-0.84-0.065
			c-0.267-0.045-0.505-0.101-0.716-0.168c-0.211-0.066-0.387-0.136-0.527-0.206s-0.243-0.136-0.308-0.198
			c-0.064-0.061-0.114-0.158-0.149-0.289c-0.035-0.133-0.053-0.327-0.053-0.585c0-0.17,0.006-0.306,0.018-0.409
			c0.012-0.102,0.029-0.184,0.053-0.246c0.023-0.061,0.053-0.102,0.088-0.123c0.035-0.02,0.079-0.03,0.132-0.03
			c0.064,0,0.159,0.037,0.285,0.11s0.283,0.153,0.471,0.241s0.405,0.17,0.654,0.246s0.532,0.114,0.849,0.114
			c0.199,0,0.376-0.021,0.532-0.062c0.154-0.041,0.289-0.1,0.404-0.176c0.113-0.076,0.2-0.173,0.259-0.29s0.088-0.252,0.088-0.404
			c0-0.176-0.055-0.326-0.163-0.453c-0.108-0.125-0.252-0.235-0.43-0.329c-0.18-0.094-0.382-0.182-0.607-0.264S25.562,9.1,25.326,9
			c-0.238-0.1-0.47-0.214-0.695-0.343s-0.428-0.287-0.605-0.475c-0.18-0.188-0.323-0.413-0.432-0.677s-0.162-0.58-0.162-0.949
			c0-0.375,0.073-0.719,0.22-1.033c0.146-0.313,0.357-0.581,0.633-0.804s0.61-0.396,1.007-0.519
			c0.395-0.123,0.839-0.185,1.331-0.185c0.246,0,0.484,0.018,0.716,0.053S27.78,4.147,27.968,4.2s0.346,0.109,0.475,0.172
			c0.129,0.061,0.221,0.113,0.277,0.158c0.055,0.043,0.095,0.088,0.118,0.131c0.023,0.045,0.041,0.098,0.053,0.158
			c0.012,0.063,0.022,0.139,0.03,0.229c0.01,0.092,0.014,0.204,0.014,0.339c0,0.158-0.004,0.287-0.014,0.387
			c-0.008,0.1-0.023,0.179-0.043,0.237C28.857,6.07,28.829,6.11,28.794,6.13s-0.076,0.03-0.123,0.03
			c-0.053,0-0.135-0.03-0.246-0.093c-0.111-0.061-0.25-0.127-0.418-0.197c-0.166-0.07-0.359-0.137-0.58-0.197
			c-0.219-0.063-0.47-0.093-0.751-0.093c-0.199,0-0.372,0.021-0.519,0.062s-0.267,0.1-0.36,0.176s-0.164,0.166-0.211,0.268
			c-0.047,0.104-0.07,0.213-0.07,0.33c0,0.182,0.056,0.334,0.167,0.457s0.258,0.231,0.439,0.325s0.388,0.182,0.619,0.264
			s0.467,0.171,0.703,0.269c0.238,0.096,0.472,0.209,0.703,0.338c0.231,0.129,0.438,0.287,0.62,0.475s0.328,0.412,0.439,0.672
			C29.317,9.477,29.373,9.786,29.373,10.143z"/>
		<path fill="#E3CD1F" d="M35.476,11.584c0,0.258-0.017,0.456-0.049,0.594s-0.074,0.234-0.127,0.289
			c-0.053,0.057-0.131,0.105-0.232,0.15c-0.104,0.043-0.224,0.081-0.361,0.113s-0.287,0.058-0.447,0.075
			c-0.162,0.018-0.324,0.026-0.488,0.026c-0.439,0-0.82-0.056-1.143-0.167s-0.589-0.282-0.8-0.515
			c-0.211-0.23-0.366-0.522-0.466-0.874s-0.149-0.768-0.149-1.248V6.012h-0.94c-0.111,0-0.196-0.068-0.255-0.207
			C29.96,5.668,29.93,5.438,29.93,5.116c0-0.17,0.007-0.313,0.022-0.431c0.014-0.117,0.036-0.209,0.065-0.276
			s0.065-0.116,0.11-0.146c0.043-0.029,0.095-0.044,0.153-0.044h0.932V2.47c0-0.059,0.016-0.111,0.048-0.158
			s0.091-0.086,0.176-0.118s0.199-0.056,0.344-0.07c0.143-0.015,0.32-0.022,0.531-0.022c0.217,0,0.396,0.008,0.541,0.022
			c0.143,0.015,0.256,0.038,0.338,0.07s0.141,0.071,0.176,0.118s0.053,0.1,0.053,0.158v1.749h1.705c0.059,0,0.109,0.015,0.154,0.044
			c0.043,0.029,0.08,0.078,0.109,0.146s0.051,0.159,0.066,0.276c0.014,0.117,0.021,0.261,0.021,0.431
			c0,0.322-0.029,0.553-0.088,0.689c-0.059,0.139-0.144,0.207-0.255,0.207H33.42v3.683c0,0.428,0.067,0.749,0.202,0.962
			c0.135,0.215,0.375,0.321,0.721,0.321c0.117,0,0.223-0.01,0.316-0.03s0.177-0.045,0.251-0.07c0.072-0.027,0.134-0.05,0.184-0.07
			s0.096-0.031,0.137-0.031c0.035,0,0.068,0.011,0.102,0.031c0.031,0.021,0.057,0.061,0.074,0.123
			c0.018,0.061,0.033,0.145,0.049,0.25C35.468,11.286,35.476,11.42,35.476,11.584z"/>
		<path fill="#E3CD1F" d="M43.648,12.384c0,0.082-0.029,0.146-0.088,0.193s-0.151,0.08-0.277,0.101s-0.312,0.031-0.558,0.031
			c-0.264,0-0.456-0.011-0.575-0.031c-0.121-0.021-0.206-0.054-0.256-0.101s-0.074-0.111-0.074-0.193V11.76
			c-0.322,0.346-0.689,0.615-1.104,0.809c-0.412,0.193-0.871,0.29-1.375,0.29c-0.416,0-0.799-0.055-1.146-0.163
			c-0.35-0.107-0.65-0.269-0.906-0.482c-0.254-0.214-0.452-0.479-0.593-0.796s-0.211-0.686-0.211-1.107
			c0-0.457,0.089-0.854,0.269-1.19c0.178-0.337,0.444-0.615,0.799-0.836c0.354-0.219,0.796-0.382,1.323-0.487
			s1.14-0.158,1.837-0.158h0.765V7.164c0-0.246-0.025-0.462-0.075-0.646c-0.05-0.186-0.131-0.339-0.246-0.462
			C41.044,5.933,40.89,5.842,40.7,5.784s-0.426-0.088-0.707-0.088c-0.369,0-0.699,0.041-0.988,0.123
			c-0.291,0.082-0.547,0.173-0.77,0.272s-0.408,0.19-0.559,0.272c-0.148,0.082-0.271,0.123-0.364,0.123
			c-0.064,0-0.122-0.021-0.171-0.062c-0.051-0.041-0.092-0.1-0.123-0.176c-0.033-0.076-0.058-0.17-0.075-0.281
			s-0.026-0.234-0.026-0.369c0-0.182,0.015-0.325,0.044-0.431s0.085-0.2,0.167-0.285s0.226-0.179,0.431-0.281
			s0.445-0.198,0.721-0.286s0.575-0.159,0.901-0.216c0.324-0.055,0.66-0.083,1.006-0.083c0.615,0,1.141,0.061,1.578,0.181
			c0.436,0.12,0.795,0.305,1.076,0.553c0.281,0.25,0.486,0.57,0.615,0.963s0.193,0.858,0.193,1.397v5.274H43.648z M41.477,9.027
			h-0.844c-0.357,0-0.662,0.026-0.914,0.079s-0.457,0.132-0.615,0.237s-0.274,0.233-0.347,0.382c-0.074,0.15-0.11,0.321-0.11,0.515
			c0,0.328,0.104,0.586,0.312,0.773s0.497,0.281,0.866,0.281c0.311,0,0.596-0.079,0.856-0.237s0.526-0.39,0.796-0.694
			C41.477,10.363,41.477,9.027,41.477,9.027z"/>
		<path fill="#E3CD1F" d="M53.342,12.358c0,0.059-0.018,0.109-0.053,0.154c-0.035,0.043-0.094,0.08-0.176,0.109
			s-0.195,0.051-0.338,0.066c-0.145,0.014-0.321,0.021-0.532,0.021c-0.217,0-0.397-0.008-0.54-0.021
			c-0.145-0.016-0.257-0.037-0.339-0.066s-0.141-0.066-0.176-0.109c-0.035-0.045-0.053-0.096-0.053-0.154V7.884
			c0-0.381-0.028-0.68-0.083-0.896c-0.057-0.217-0.137-0.402-0.242-0.558s-0.242-0.275-0.408-0.361
			c-0.168-0.084-0.362-0.127-0.585-0.127c-0.281,0-0.565,0.103-0.853,0.308s-0.586,0.504-0.896,0.896v5.212
			c0,0.059-0.018,0.109-0.053,0.154c-0.035,0.043-0.096,0.08-0.18,0.109c-0.086,0.029-0.198,0.051-0.339,0.066
			c-0.141,0.014-0.319,0.021-0.536,0.021s-0.396-0.008-0.536-0.021c-0.141-0.016-0.254-0.037-0.339-0.066s-0.145-0.066-0.18-0.109
			c-0.035-0.045-0.053-0.096-0.053-0.154v-7.84c0-0.059,0.015-0.109,0.044-0.154c0.029-0.043,0.082-0.08,0.158-0.109
			s0.174-0.051,0.294-0.066c0.12-0.014,0.271-0.021,0.453-0.021c0.188,0,0.343,0.008,0.466,0.021
			c0.123,0.016,0.218,0.037,0.286,0.066c0.066,0.029,0.115,0.066,0.145,0.109c0.029,0.045,0.044,0.096,0.044,0.154v0.905
			c0.434-0.469,0.874-0.82,1.323-1.055c0.447-0.234,0.915-0.352,1.401-0.352c0.533,0,0.982,0.088,1.349,0.264
			s0.662,0.415,0.889,0.716c0.225,0.303,0.388,0.655,0.487,1.06s0.149,0.891,0.149,1.459v4.843H53.342z"/>
		<path fill="#E3CD1F" d="M62.949,12.358c0,0.064-0.015,0.119-0.044,0.162c-0.029,0.045-0.079,0.081-0.149,0.11
			s-0.166,0.05-0.285,0.062c-0.121,0.012-0.269,0.018-0.444,0.018c-0.188,0-0.34-0.006-0.457-0.018s-0.213-0.032-0.286-0.062
			s-0.126-0.065-0.158-0.11c-0.032-0.043-0.048-0.098-0.048-0.162v-0.87c-0.404,0.434-0.828,0.771-1.271,1.011
			s-0.933,0.36-1.472,0.36c-0.598,0-1.103-0.116-1.517-0.347c-0.412-0.231-0.75-0.544-1.01-0.937
			c-0.262-0.393-0.45-0.851-0.567-1.376c-0.117-0.523-0.176-1.076-0.176-1.656c0-0.697,0.075-1.324,0.224-1.881
			c0.15-0.557,0.368-1.031,0.655-1.424s0.645-0.694,1.072-0.905s0.92-0.316,1.477-0.316c0.439,0,0.838,0.09,1.195,0.269
			s0.712,0.44,1.063,0.786V0.827c0-0.059,0.016-0.111,0.049-0.158c0.031-0.047,0.09-0.086,0.176-0.119
			c0.084-0.031,0.197-0.057,0.338-0.074S61.633,0.45,61.85,0.45s0.396,0.009,0.536,0.026s0.252,0.043,0.334,0.074
			c0.082,0.033,0.141,0.072,0.176,0.119s0.053,0.1,0.053,0.158V12.358z M60.752,7.12c-0.316-0.398-0.619-0.703-0.91-0.914
			c-0.289-0.211-0.593-0.316-0.909-0.316c-0.287,0-0.535,0.072-0.743,0.215c-0.208,0.145-0.375,0.336-0.5,0.576
			c-0.127,0.24-0.221,0.509-0.281,0.805c-0.063,0.296-0.093,0.599-0.093,0.909c0,0.328,0.026,0.647,0.079,0.958
			s0.139,0.588,0.26,0.83c0.119,0.244,0.279,0.438,0.479,0.585s0.451,0.22,0.756,0.22c0.152,0,0.3-0.021,0.443-0.066
			c0.144-0.043,0.291-0.115,0.439-0.215c0.15-0.1,0.304-0.229,0.462-0.391s0.331-0.359,0.519-0.594V7.12H60.752z"/>
		<path fill="#E3CD1F" d="M71.923,12.384c0,0.082-0.029,0.146-0.088,0.193s-0.151,0.08-0.277,0.101S71.246,12.709,71,12.709
			c-0.264,0-0.456-0.011-0.575-0.031c-0.121-0.021-0.206-0.054-0.256-0.101s-0.074-0.111-0.074-0.193V11.76
			c-0.322,0.346-0.689,0.615-1.104,0.809c-0.412,0.193-0.871,0.29-1.375,0.29c-0.416,0-0.799-0.055-1.146-0.163
			c-0.35-0.107-0.65-0.269-0.906-0.482c-0.254-0.214-0.452-0.479-0.593-0.796s-0.211-0.686-0.211-1.107
			c0-0.457,0.089-0.854,0.269-1.19c0.178-0.337,0.444-0.615,0.799-0.836c0.354-0.219,0.796-0.382,1.323-0.487
			s1.14-0.158,1.837-0.158h0.765V7.164c0-0.246-0.025-0.462-0.075-0.646c-0.05-0.186-0.131-0.339-0.246-0.462
			c-0.113-0.123-0.267-0.214-0.457-0.272s-0.426-0.088-0.707-0.088c-0.369,0-0.699,0.041-0.988,0.123
			c-0.291,0.082-0.547,0.173-0.77,0.272s-0.408,0.19-0.559,0.272c-0.148,0.082-0.271,0.123-0.364,0.123
			c-0.064,0-0.122-0.021-0.171-0.062c-0.051-0.041-0.092-0.1-0.123-0.176c-0.033-0.076-0.058-0.17-0.075-0.281
			s-0.026-0.234-0.026-0.369c0-0.182,0.015-0.325,0.044-0.431s0.085-0.2,0.167-0.285s0.226-0.179,0.431-0.281
			s0.445-0.198,0.721-0.286s0.575-0.159,0.901-0.216c0.324-0.055,0.66-0.083,1.006-0.083c0.615,0,1.141,0.061,1.578,0.181
			c0.436,0.12,0.795,0.305,1.076,0.553c0.281,0.25,0.486,0.57,0.615,0.963s0.193,0.858,0.193,1.397v5.274H71.923z M69.753,9.027
			h-0.844c-0.357,0-0.662,0.026-0.914,0.079s-0.457,0.132-0.615,0.237s-0.274,0.233-0.347,0.382c-0.074,0.15-0.11,0.321-0.11,0.515
			c0,0.328,0.104,0.586,0.312,0.773s0.497,0.281,0.866,0.281c0.311,0,0.596-0.079,0.856-0.237s0.526-0.39,0.796-0.694
			C69.753,10.363,69.753,9.027,69.753,9.027z"/>
		<path fill="#E3CD1F" d="M79.166,5.248c0,0.211-0.006,0.384-0.018,0.519s-0.029,0.24-0.053,0.316s-0.055,0.129-0.093,0.158
			s-0.086,0.044-0.145,0.044c-0.047,0-0.1-0.01-0.158-0.03s-0.125-0.043-0.197-0.066c-0.074-0.023-0.154-0.045-0.242-0.066
			c-0.088-0.02-0.185-0.03-0.29-0.03c-0.123,0-0.246,0.025-0.369,0.075S77.35,6.295,77.219,6.4
			c-0.133,0.105-0.271,0.246-0.414,0.422s-0.297,0.393-0.461,0.65v4.887c0,0.059-0.018,0.109-0.053,0.154
			c-0.035,0.043-0.096,0.08-0.18,0.109c-0.086,0.029-0.198,0.051-0.339,0.066c-0.141,0.014-0.319,0.021-0.536,0.021
			s-0.396-0.008-0.536-0.021c-0.141-0.016-0.254-0.037-0.339-0.066s-0.145-0.066-0.18-0.109c-0.035-0.045-0.053-0.096-0.053-0.154
			v-7.84c0-0.059,0.015-0.109,0.044-0.154c0.029-0.043,0.082-0.08,0.158-0.109s0.174-0.051,0.294-0.066
			c0.12-0.014,0.271-0.021,0.453-0.021c0.188,0,0.343,0.008,0.466,0.021c0.123,0.016,0.218,0.037,0.286,0.066
			c0.066,0.029,0.115,0.066,0.145,0.109c0.029,0.045,0.044,0.096,0.044,0.154v0.976c0.205-0.293,0.398-0.534,0.58-0.726
			c0.182-0.189,0.354-0.341,0.519-0.452s0.328-0.188,0.492-0.233c0.164-0.043,0.328-0.065,0.492-0.065
			c0.076,0,0.158,0.005,0.246,0.013c0.088,0.01,0.179,0.024,0.272,0.045s0.176,0.043,0.246,0.07c0.07,0.025,0.121,0.054,0.153,0.083
			s0.056,0.062,0.07,0.097s0.028,0.084,0.04,0.145c0.012,0.063,0.021,0.154,0.026,0.277S79.166,5.037,79.166,5.248z"/>
		<path fill="#E3CD1F" d="M87.675,12.358c0,0.064-0.015,0.119-0.044,0.162c-0.029,0.045-0.079,0.081-0.149,0.11
			s-0.166,0.05-0.285,0.062c-0.121,0.012-0.269,0.018-0.444,0.018c-0.188,0-0.34-0.006-0.457-0.018s-0.213-0.032-0.286-0.062
			s-0.126-0.065-0.158-0.11c-0.032-0.043-0.048-0.098-0.048-0.162v-0.87c-0.404,0.434-0.828,0.771-1.271,1.011
			s-0.933,0.36-1.472,0.36c-0.598,0-1.103-0.116-1.517-0.347c-0.412-0.231-0.75-0.544-1.01-0.937
			c-0.262-0.393-0.45-0.851-0.567-1.376c-0.117-0.523-0.176-1.076-0.176-1.656c0-0.697,0.075-1.324,0.224-1.881
			c0.15-0.557,0.368-1.031,0.655-1.424s0.645-0.694,1.072-0.905s0.92-0.316,1.477-0.316c0.439,0,0.838,0.09,1.195,0.269
			s0.712,0.44,1.063,0.786V0.827c0-0.059,0.016-0.111,0.049-0.158c0.031-0.047,0.09-0.086,0.176-0.119
			c0.084-0.031,0.197-0.057,0.338-0.074s0.319-0.026,0.536-0.026s0.396,0.009,0.536,0.026s0.252,0.043,0.334,0.074
			c0.082,0.033,0.141,0.072,0.176,0.119s0.053,0.1,0.053,0.158V12.358z M85.478,7.12c-0.316-0.398-0.619-0.703-0.91-0.914
			c-0.289-0.211-0.593-0.316-0.909-0.316c-0.287,0-0.535,0.072-0.743,0.215c-0.208,0.145-0.375,0.336-0.5,0.576
			c-0.127,0.24-0.221,0.509-0.281,0.805c-0.063,0.296-0.093,0.599-0.093,0.909c0,0.328,0.026,0.647,0.079,0.958
			s0.139,0.588,0.26,0.83c0.119,0.244,0.279,0.438,0.479,0.585s0.451,0.22,0.756,0.22c0.152,0,0.3-0.021,0.443-0.066
			c0.144-0.043,0.291-0.115,0.439-0.215c0.15-0.1,0.304-0.229,0.462-0.391s0.331-0.359,0.519-0.594L85.478,7.12L85.478,7.12z"/>
	</g>
</g>
</svg>
