<?xml version="1.0" encoding="UTF-8" standalone="no"?>
<!-- Created with Inkscape (http://www.inkscape.org/) -->

<svg
   xmlns:dc="http://purl.org/dc/elements/1.1/"
   xmlns:cc="http://creativecommons.org/ns#"
   xmlns:rdf="http://www.w3.org/1999/02/22-rdf-syntax-ns#"
   xmlns:svg="http://www.w3.org/2000/svg"
   xmlns="http://www.w3.org/2000/svg"
   xmlns:sodipodi="http://sodipodi.sourceforge.net/DTD/sodipodi-0.dtd"
   xmlns:inkscape="http://www.inkscape.org/namespaces/inkscape"
   version="1.1"
   id="svg3918"
   xml:space="preserve"
   width="52.376999"
   height="12.789"
   viewBox="0 0 52.376999 12.789"
   sodipodi:docname="ges-logo22222.svg"
   inkscape:version="0.92.2 (5c3e80d, 2017-08-06)"><metadata
     id="metadata3924"><rdf:RDF><cc:Work
         rdf:about=""><dc:format>image/svg+xml</dc:format><dc:type
           rdf:resource="http://purl.org/dc/dcmitype/StillImage" /><dc:title></dc:title></cc:Work></rdf:RDF></metadata><defs
     id="defs3922" /><sodipodi:namedview
     pagecolor="#ffffff"
     bordercolor="#666666"
     borderopacity="1"
     objecttolerance="10"
     gridtolerance="10"
     guidetolerance="10"
     inkscape:pageopacity="0"
     inkscape:pageshadow="2"
     inkscape:window-width="1832"
     inkscape:window-height="1058"
     id="namedview3920"
     showgrid="false"
     inkscape:zoom="11.313709"
     inkscape:cx="36.689138"
     inkscape:cy="3.0866835"
     inkscape:window-x="80"
     inkscape:window-y="-8"
     inkscape:window-maximized="1"
     inkscape:current-layer="g3928" /><g
     id="g3926"
     inkscape:groupmode="layer"
     inkscape:label="ges-logo22"
     transform="scale(1.3333333)"><g
       id="g3928"><path
         d="m 5.758,4.879 h 3.14 V 8.832 C 7.75,9.332 6.609,9.582 5.477,9.582 3.934,9.582 2.699,9.137 1.773,8.238 0.844,7.336 0.383,6.219 0.383,4.895 0.383,3.5 0.859,2.34 1.82,1.41 2.777,0.484 3.98,0.02 5.43,0.02 c 0.519,0 1.015,0.058 1.484,0.171 0.477,0.118 1.078,0.325 1.797,0.625 v 1.36 C 7.594,1.531 6.488,1.207 5.398,1.207 4.375,1.207 3.516,1.559 2.82,2.254 2.121,2.953 1.773,3.809 1.773,4.816 c 0,1.055 0.348,1.918 1.047,2.594 0.696,0.668 1.598,1 2.703,1 0.528,0 1.165,-0.117 1.907,-0.359 L 7.555,8.004 V 6.066 H 5.758 Z"
         style="fill:#00618b;fill-opacity:1;fill-rule:nonzero;stroke:none"
         id="path3930"
         inkscape:connector-curvature="0" /><path
         d="m 17.277,0.16 h 5.282 v 1.188 h -3.954 v 2.843 h 3.829 v 1.204 h -3.829 v 2.89 h 4.079 v 1.188 h -5.407 z"
         style="fill:#00618b;fill-opacity:1;fill-rule:nonzero;stroke:none"
         id="path3932"
         inkscape:connector-curvature="0" /><path
         d="M 33.711,5.555 32.695,4.93 C 32.059,4.547 31.605,4.164 31.336,3.789 31.063,3.418 30.93,2.984 30.93,2.492 c 0,-0.738 0.254,-1.336 0.765,-1.797 0.508,-0.457 1.172,-0.687 1.985,-0.687 0.777,0 1.492,0.222 2.14,0.656 V 2.18 C 35.152,1.535 34.426,1.211 33.648,1.211 c -0.437,0 -0.8,0.105 -1.078,0.312 -0.273,0.2 -0.406,0.461 -0.406,0.782 0,0.273 0.098,0.535 0.297,0.781 0.207,0.242 0.539,0.496 1,0.766 l 1.016,0.609 c 1.144,0.68 1.718,1.539 1.718,2.578 0,0.75 -0.257,1.363 -0.765,1.828 -0.5,0.469 -1.149,0.703 -1.938,0.703 -0.929,0 -1.773,-0.281 -2.531,-0.843 V 7.023 c 0.727,0.918 1.566,1.375 2.516,1.375 0.414,0 0.757,-0.113 1.031,-0.343 0.277,-0.239 0.422,-0.535 0.422,-0.891 0,-0.57 -0.41,-1.109 -1.219,-1.609 z"
         style="fill:#00618b;fill-opacity:1;fill-rule:nonzero;stroke:none"
         id="path3934"
         inkscape:connector-curvature="0" /><path
         d="m 13.27,4.113 c 0.195,0 0.367,0.075 0.515,0.219 0.145,0.148 0.219,0.32 0.219,0.516 0,0.211 -0.074,0.382 -0.219,0.515 -0.137,0.133 -0.308,0.203 -0.515,0.203 -0.211,0 -0.387,-0.07 -0.532,-0.203 -0.136,-0.133 -0.203,-0.304 -0.203,-0.515 0,-0.196 0.067,-0.368 0.203,-0.516 0.145,-0.144 0.321,-0.219 0.532,-0.219 z"
         style="fill:#00618b;fill-opacity:1;fill-rule:nonzero;stroke:none"
         id="path3936"
         inkscape:connector-curvature="0" /><path
         d="m 26.793,4.109 c 0.195,0 0.367,0.075 0.516,0.219 0.144,0.149 0.218,0.32 0.218,0.516 0,0.211 -0.074,0.383 -0.218,0.515 C 27.172,5.492 27,5.563 26.793,5.563 26.582,5.563 26.406,5.492 26.262,5.359 26.125,5.227 26.059,5.055 26.059,4.844 c 0,-0.196 0.066,-0.367 0.203,-0.516 0.144,-0.144 0.32,-0.219 0.531,-0.219 z"
         style="fill:#00618b;fill-opacity:1;fill-rule:nonzero;stroke:none"
         id="path3938"
         inkscape:connector-curvature="0" /><path
         d="M 37.582,1.6374261 H 37.41 V 0.54342615 h 0.375 c 0.133,0 0.227,0.012 0.281,0.031 0.059,0.024 0.11,0.059 0.141,0.11 0.039,0.043 0.063,0.097 0.063,0.156 0,0.086 -0.036,0.16000005 -0.094,0.21899995 -0.063,0.054 -0.145,0.086 -0.235,0.094 0.039,0.011 0.079,0.039 0.11,0.078 0.039,0.043 0.094,0.113 0.156,0.203 l 0.125,0.203 h -0.219 l -0.093,-0.172 c -0.063,-0.121 -0.118,-0.203 -0.157,-0.234 -0.043,-0.039 -0.101,-0.063 -0.172,-0.063 h -0.109 z m 0,-0.95299995 V 1.0284262 h 0.219 c 0.09,0 0.16,-0.016 0.203,-0.047 0.039,-0.028 0.062,-0.071 0.062,-0.125 0,-0.059 -0.023,-0.102 -0.062,-0.125 -0.043,-0.028 -0.117,-0.047 -0.219,-0.047 z m 0.234,-0.625 c 0.184,0 0.36,0.051 0.516,0.14 0.152,0.094 0.281,0.223 0.375,0.375 0.09,0.157 0.141,0.332 0.141,0.51599995 0,0.188 -0.051,0.363 -0.141,0.516 -0.086,0.156 -0.211,0.285 -0.375,0.375 -0.156,0.09 -0.332,0.14 -0.516,0.14 -0.187,0 -0.363,-0.05 -0.515,-0.14 -0.156,-0.09 -0.285,-0.219 -0.375,-0.375 -0.094,-0.153 -0.141,-0.328 -0.141,-0.516 0,-0.18399995 0.047,-0.35899995 0.141,-0.51599995 0.09,-0.152 0.219,-0.281 0.375,-0.375 0.164,-0.089 0.336,-0.14 0.515,-0.14 z m 0,0.172 c -0.23,0 -0.433,0.086 -0.609,0.25 -0.168,0.168 -0.25,0.371 -0.25,0.60899995 0,0.242 0.082,0.445 0.25,0.609 0.164,0.168 0.367,0.25 0.609,0.25 0.239,0 0.442,-0.082 0.61,-0.25 0.164,-0.164 0.25,-0.367 0.25,-0.609 0,-0.23799995 -0.086,-0.44099995 -0.25,-0.60899995 -0.168,-0.164 -0.371,-0.25 -0.61,-0.25 z"
         style="fill:#00618b;fill-opacity:1;fill-rule:nonzero;stroke:none"
         id="path3940"
         inkscape:connector-curvature="0" /></g></g></svg>