<svg id="Ebene_1" data-name="Ebene 1" xmlns="http://www.w3.org/2000/svg" viewBox="0 0 730.86 108.82"><defs><style>.cls-1{fill:#a0c846;}.cls-1,.cls-2{fill-rule:evenodd;}.cls-2,.cls-3{fill:#0a1464;}.cls-10,.cls-4,.cls-5,.cls-6,.cls-7,.cls-8,.cls-9{fill:none;stroke:#a0c846;stroke-miterlimit:3.86;}.cls-4{stroke-width:7.94px;}.cls-5{stroke-width:6.24px;}.cls-6{stroke-width:7.37px;}.cls-7{stroke-width:1.85px;}.cls-8{stroke-width:3.97px;}.cls-9{stroke-width:5.1px;}.cls-10{stroke-width:2.83px;}</style></defs><title>logo_oekom_research_fuer_Orbit</title><path class="cls-1" d="M45.35,60c0-14.37-8.61-20.61-21.5-20.61S2.33,45.59,2.33,60c0,12.23,6.55,20.57,21.52,20.57,14.23,0,21.5-8,21.5-20.5V60ZM23.85,73.14c-4.92,0-9.11-3.84-9.11-13.1s4.49-13.16,9.11-13.16S33,50.6,33,60c0,8.76-4.09,13.1-9,13.1Z" transform="translate(-2.33 -3.61)"/><path class="cls-2" d="M89.08,62.39c0-7.56-1.67-13.73-6-18.15-3.56-3.46-8.1-4.89-13.46-4.89-6.18,0-10.77,1.75-14,4.71-3.91,3.62-5.7,9.23-5.7,15.69,0,7.59,2,12.73,5.52,16,3.61,3.47,8.76,4.75,14.27,4.75,5.8,0,10-1.48,13.18-3.76A18.15,18.15,0,0,0,89.09,69l-12.63-.55c-1.41,3.26-3.48,5.16-6.64,5.16-3.95,0-6.81-3-7.46-11.26ZM62.34,56.45c.72-7.71,3.76-10.22,7.24-10.22s6.18,3.24,7,10.22Z" transform="translate(-2.33 -3.61)"/><path class="cls-3" d="M118.82,55.84,132,40.23H118.24l-5.81,7.6c-1.67,2.29-3.33,4.65-4.89,7h-.32c.09-2.78.11-4.84.11-7.23V25.79H95.23V79.64h12.1V67.38l3.92-3.49,8.35,15.75h15l-15.81-23.8Z" transform="translate(-2.33 -3.61)"/><path class="cls-2" d="M180.2,60c0-14.37-8.61-20.61-21.5-20.61S137.19,45.59,137.19,60c0,12.23,6.54,20.57,21.51,20.57,14.23,0,21.5-8,21.5-20.5V60ZM158.7,73.14c-4.92,0-9.11-3.84-9.11-13.1s4.49-13.16,9.11-13.16,9.1,3.72,9.1,13.16c0,8.76-4.09,13.1-9,13.1Z" transform="translate(-2.33 -3.61)"/><path class="cls-3" d="M252.44,79.64V54.41c0-5.72-1.19-9.33-3.39-11.72s-5.21-3.34-9.16-3.34A20.22,20.22,0,0,0,231.75,41a31.41,31.41,0,0,0-6.86,4.3h-.31a11.55,11.55,0,0,0-3.45-4,13.38,13.38,0,0,0-7.58-1.91,21.2,21.2,0,0,0-7.69,1.52,28.83,28.83,0,0,0-6.65,4h-.32l.11-4.67H186.91V79.64H199V53.79A23.72,23.72,0,0,1,203.79,50a9.72,9.72,0,0,1,4.86-1.47,4.3,4.3,0,0,1,3.51,1.61c1.07,1.43,1.47,3.88,1.47,7.3V79.64h12.09V53.77a22.45,22.45,0,0,1,4.8-3.81,10.28,10.28,0,0,1,4.76-1.47A4.3,4.3,0,0,1,239,50.16c1,1.47,1.38,4.16,1.38,7.39V79.64Z" transform="translate(-2.33 -3.61)"/><path class="cls-3" d="M286.67,38.76h6.54v7.07a15.48,15.48,0,0,1,3.94-5,10.17,10.17,0,0,1,7.22-3c.13,0,.35,0,.65,0l1.57.15v7.26c-.41-.07-.79-.12-1.15-.15s-.7,0-1.1,0q-5.2,0-8,3.37a11.53,11.53,0,0,0-2.8,7.68V79.7h-6.88V38.76Z" transform="translate(-2.33 -3.61)"/><path class="cls-2" d="M359.81,39.9A15.48,15.48,0,0,1,366,45.18a18.34,18.34,0,0,1,2.75,7.22,47.24,47.24,0,0,1,.61,9h-30q.19,6.23,2.95,10t8.52,3.75a11,11,0,0,0,8.6-3.56,11.87,11.87,0,0,0,2.6-4.78h6.77A14.24,14.24,0,0,1,367,71.9a17.39,17.39,0,0,1-3.36,4.51,16,16,0,0,1-7.76,4.13,23.49,23.49,0,0,1-5.62.61,17.24,17.24,0,0,1-13-5.54Q332,70,332,60q0-9.85,5.36-16a17.65,17.65,0,0,1,14-6.15,18.64,18.64,0,0,1,8.45,2.06ZM362.33,56a17.86,17.86,0,0,0-1.95-7.15q-2.83-5-9.44-5A10.45,10.45,0,0,0,343,47.28,12.83,12.83,0,0,0,339.58,56Z" transform="translate(-2.33 -3.61)"/><path class="cls-3" d="M403.69,66.85a10.07,10.07,0,0,0,1.72,5.28c1.74,2.22,4.74,3.33,9,3.33a13.4,13.4,0,0,0,6.73-1.65,5.57,5.57,0,0,0,2.9-5.16,4.39,4.39,0,0,0-2.33-4,28,28,0,0,0-5.89-2l-5.46-1.38a26.52,26.52,0,0,1-7.73-2.9,8.7,8.7,0,0,1-4.43-7.73,11.84,11.84,0,0,1,4.16-9.4c2.81-2.4,6.57-3.59,11.28-3.6q9.25,0,13.34,5.43a11.8,11.8,0,0,1,2.49,7.42H423a8,8,0,0,0-1.64-4.24q-2.37-2.72-8.22-2.72a10,10,0,0,0-5.93,1.49,4.72,4.72,0,0,0-2,3.94,4.84,4.84,0,0,0,2.64,4.28A15.89,15.89,0,0,0,412.37,55l4.55,1.1q7.43,1.8,9.94,3.48,4,2.64,4,8.3a12.61,12.61,0,0,1-4.17,9.44q-4.12,4-12.62,4-9.13,0-13-4.13a15.85,15.85,0,0,1-4.05-10.29Z" transform="translate(-2.33 -3.61)"/><path class="cls-2" d="M486,39.9a15.35,15.35,0,0,1,6.23,5.28A18.2,18.2,0,0,1,495,52.4a48.09,48.09,0,0,1,.61,9h-30q.2,6.23,2.94,10t8.53,3.75a11,11,0,0,0,8.6-3.56,12,12,0,0,0,2.6-4.78H495a14.24,14.24,0,0,1-1.8,5.05,17.64,17.64,0,0,1-3.37,4.51,16,16,0,0,1-7.76,4.13,23.43,23.43,0,0,1-5.62.61,17.27,17.27,0,0,1-13-5.54Q458.21,70,458.21,60q0-9.85,5.35-16a17.66,17.66,0,0,1,14-6.15A18.58,18.58,0,0,1,486,39.9ZM488.53,56a17.86,17.86,0,0,0-1.95-7.15q-2.83-5-9.45-5a10.45,10.45,0,0,0-7.95,3.44,12.87,12.87,0,0,0-3.4,8.68Z" transform="translate(-2.33 -3.61)"/><path class="cls-2" d="M533.26,73.51a8.11,8.11,0,0,0,5.16,1.72,15.58,15.58,0,0,0,7-1.69,9.46,9.46,0,0,0,5.73-9.13V58.86a11.41,11.41,0,0,1-3.24,1.34A28.56,28.56,0,0,1,544,61l-4.17.53a16,16,0,0,0-5.62,1.57,6.1,6.1,0,0,0-3.17,5.73,5.66,5.66,0,0,0,2.18,4.71Zm14.48-18.62a3.75,3.75,0,0,0,3.18-2,6.13,6.13,0,0,0,.46-2.64,5.51,5.51,0,0,0-2.53-5.08c-1.65-1.07-4-1.61-7.15-1.61q-5.38,0-7.64,2.91a9.6,9.6,0,0,0-1.65,4.78H526q.19-7.57,4.9-10.52a20.21,20.21,0,0,1,11-3c4.81,0,8.73.92,11.73,2.75s4.48,4.69,4.48,8.57V72.67a3.15,3.15,0,0,0,.42,1.72,2.18,2.18,0,0,0,1.87.65c.31,0,.65,0,1,0l1.23-.19v5.08a17.39,17.39,0,0,1-2.45.57,17.11,17.11,0,0,1-2.29.12,5.68,5.68,0,0,1-5.17-2.52,9.85,9.85,0,0,1-1.18-3.79,17.47,17.47,0,0,1-6,4.78,18.84,18.84,0,0,1-8.68,2,13,13,0,0,1-9.33-3.44A11.62,11.62,0,0,1,523.89,69q0-5.7,3.55-8.83a17,17,0,0,1,9.33-3.87l11-1.37Z" transform="translate(-2.33 -3.61)"/><path class="cls-3" d="M591.29,38.76h6.54v7.07a15.28,15.28,0,0,1,3.93-5,10.17,10.17,0,0,1,7.23-3c.12,0,.34,0,.65,0l1.57.15v7.26c-.41-.07-.8-.12-1.15-.15s-.7,0-1.11,0q-5.21,0-8,3.37a11.57,11.57,0,0,0-2.79,7.68V79.7h-6.88V38.76Z" transform="translate(-2.33 -3.61)"/><path class="cls-3" d="M666,40.93q4.37,3.38,5.24,11.59H664.5a12.27,12.27,0,0,0-2.79-6.27q-2.19-2.52-7-2.52-6.57,0-9.4,6.42a25.38,25.38,0,0,0-1.84,10.28,19.35,19.35,0,0,0,2.6,10.36Q648.67,75,654.25,75A8.93,8.93,0,0,0,661,72.4a14.5,14.5,0,0,0,3.48-7.19h6.69q-1.16,8.15-5.74,11.93c-3.06,2.5-7,3.74-11.73,3.75A15.72,15.72,0,0,1,640.91,75q-4.78-5.9-4.78-14.68,0-10.78,5.24-16.79a16.92,16.92,0,0,1,13.34-6q6.91,0,11.24,3.36Z" transform="translate(-2.33 -3.61)"/><path class="cls-3" d="M699.82,23.35h6.88V44.3a19.71,19.71,0,0,1,4.4-4.36,14.86,14.86,0,0,1,8.3-2.18q8.9,0,12.08,6.23c1.14,2.27,1.72,5.42,1.72,9.45V79.7h-7.08V53.89c0-3-.38-5.21-1.14-6.61q-1.87-3.36-7-3.36a11.74,11.74,0,0,0-7.76,2.94Q706.7,49.8,706.7,58V79.7h-6.88V23.35Z" transform="translate(-2.33 -3.61)"/><line class="cls-4" x1="316.73" y1="0.08" x2="316.93" y2="108.81"/><line class="cls-5" x1="442.93" y1="0.08" x2="442.93" y2="108.81"/><line class="cls-6" x1="381.79" x2="381.72" y2="108.81"/><line class="cls-7" x1="683.06" x2="683.06" y2="108.81"/><line class="cls-8" x1="574.63" y1="0.08" x2="574.63" y2="108.81"/><line class="cls-9" x1="507.17" x2="507.17" y2="108.81"/><line class="cls-10" x1="621.17" x2="621.17" y2="108.79"/></svg>